CheltenhamClassicMedium.glyphspackage
{
glyphname = exclam;
layers = (
{
hints = (
{
horizontal = 1;
place = (-6,138);
type = Stem;
},
{
horizontal = 1;
place = (741,-20);
target = down;
type = TopGhost;
},
{
place = (69,91);
type = Stem;
}
);
layerId = "8E176FE4-6495-4606-9FA3-C7BE98DB310E";
shapes = (
{
closed = 1;
nodes = (
(204,699,o),
(184,741,o),
(137,741,cs),
(93,741,o),
(73,699,o),
(73,657,cs),
(73,596,o),
(88,550,o),
(100,451,cs),
(111,362,o),
(114,282,o),
(117,218,c),
(117,211,o),
(123,206,o),
(138,206,cs),
(154,206,o),
(160,211,o),
(160,218,c),
(163,281,o),
(165,362,o),
(176,451,cs),
(188,550,o),
(204,595,o),
(204,657,cs)
);
},
{
closed = 1;
nodes = (
(206,100,o),
(176,131,o),
(137,131,cs),
(100,131,o),
(70,100,o),
(70,63,cs),
(70,25,o),
(100,-6,o),
(137,-6,cs),
(176,-6,o),
(206,25,o),
(206,63,cs)
);
}
);
width = 276;
}
);
unicode = 33;
}
{
glyphname = quotedbl;
layers = (
{
hints = (
{
horizontal = 1;
place = (446,294);
type = Stem;
},
{
place = (59,112);
type = Stem;
},
{
place = (215,112);
type = Stem;
}
);
layerId = "8E176FE4-6495-4606-9FA3-C7BE98DB310E";
shapes = (
{
closed = 1;
nodes = (
(327,717,o),
(306,740,o),
(273,740,cs),
(240,740,o),
(219,717,o),
(219,685,cs),
(219,648,o),
(242,543,o),
(257,454,c),
(260,450,o),
(266,446,o),
(273,446,cs),
(281,446,o),
(286,450,o),
(289,454,c),
(304,545,o),
(327,648,o),
(327,685,cs)
);
},
{
closed = 1;
nodes = (
(167,717,o),
(146,740,o),
(113,740,cs),
(80,740,o),
(59,717,o),
(59,685,cs),
(59,648,o),
(82,543,o),
(97,454,c),
(100,450,o),
(106,446,o),
(113,446,cs),
(121,446,o),
(126,450,o),
(129,454,c),
(144,545,o),
(167,648,o),
(167,685,cs)
);
}
);
width = 386;
}
);
unicode = 34;
}
{
glyphname = numbersign;
layers = (
{
hints = (
{
horizontal = 1;
place = (-9,20);
type = Stem;
},
{
horizontal = 1;
place = (178,92);
type = Stem;
},
{
horizontal = 1;
place = (414,92);
type = Stem;
}
);
layerId = "8E176FE4-6495-4606-9FA3-C7BE98DB310E";
shapes = (
{
closed = 1;
nodes = (
(524,506,l),
(552,685,l),
(505,685,l),
(477,506,l),
(338,506,l),
(365,685,l),
(318,685,l),
(291,506,l),
(127,506,l),
(113,413,l),
(277,413,l),
(256,271,l),
(94,271,l),
(80,178,l),
(242,178,l),
(214,-9,l),
(261,-9,l),
(289,178,l),
(429,178,l),
(401,-9,l),
(448,-9,l),
(476,178,l),
(641,178,l),
(655,271,l),
(489,271,l),
(511,413,l),
(674,413,l),
(688,506,l)
);
},
{
closed = 1;
nodes = (
(443,271,l),
(303,271,l),
(324,413,l),
(464,413,l)
);
}
);
width = 760;
}
);
unicode = 35;
}
{
glyphname = dollar;
layers = (
{
hints = (
{
horizontal = 1;
place = (-9,50);
type = Stem;
},
{
horizontal = 1;
place = (740,-20);
target = down;
type = TopGhost;
},
{
place = (31,125);
type = Stem;
},
{
place = (247,43);
type = Stem;
},
{
place = (348,112);
type = Stem;
}
);
layerId = "8E176FE4-6495-4606-9FA3-C7BE98DB310E";
shapes = (
{
closed = 1;
nodes = (
(487,271,o),
(446,322,o),
(380,358,cs),
(349,375,o),
(318,389,o),
(290,400,c),
(290,638,l),
(341,634,o),
(363,614,o),
(379,598,c),
(360,585,o),
(348,573,o),
(348,546,cs),
(348,514,o),
(377,495,o),
(405,495,cs),
(432,495,o),
(460,515,o),
(460,559,cs),
(460,631,o),
(384,682,o),
(290,688,c),
(290,740,l),
(243,740,l),
(243,687,l),
(132,677,o),
(62,598,o),
(62,502,cs),
(62,416,o),
(126,366,o),
(183,334,cs),
(194,328,o),
(217,318,o),
(243,307,c),
(243,40,l),
(174,44,o),
(142,68,o),
(115,92,c),
(145,108,o),
(156,132,o),
(156,157,cs),
(156,187,o),
(138,215,o),
(98,215,cs),
(65,215,o),
(31,192,o),
(31,142,cs),
(31,67,o),
(107,-2,o),
(243,-9,c),
(243,-136,l),
(290,-136,l),
(290,-8,l),
(406,3,o),
(487,86,o),
(487,196,cs)
);
},
{
closed = 1;
nodes = (
(243,418,l),
(233,423,o),
(224,427,o),
(217,432,cs),
(167,463,o),
(155,500,o),
(155,544,cs),
(155,581,o),
(183,629,o),
(243,638,c)
);
},
{
closed = 1;
nodes = (
(393,112,o),
(363,55,o),
(290,42,c),
(290,290,l),
(299,286,o),
(308,282,o),
(315,279,cs),
(388,244,o),
(393,190,o),
(393,158,cs)
);
}
);
width = 521;
}
);
unicode = 36;
}
{
glyphname = percent;
layers = (
{
hints = (
{
horizontal = 1;
place = (-5,44);
type = Stem;
},
{
horizontal = 1;
place = (329,44);
type = Stem;
},
{
horizontal = 1;
place = (683,44);
type = Stem;
},
{
place = (52,91);
type = Stem;
},
{
place = (285,91);
type = Stem;
},
{
place = (480,91);
type = Stem;
},
{
place = (713,91);
type = Stem;
}
);
layerId = "8E176FE4-6495-4606-9FA3-C7BE98DB310E";
shapes = (
{
closed = 1;
nodes = (
(804,313,o),
(733,393,o),
(643,393,cs),
(553,393,o),
(482,313,o),
(482,194,cs),
(482,75,o),
(554,-5,o),
(643,-5,cs),
(732,-5,o),
(804,75,o),
(804,194,cs)
);
},
{
closed = 1;
nodes = (
(593,733,l),
(204,-10,l),
(263,-10,l),
(652,733,l)
);
},
{
closed = 1;
nodes = (
(374,647,o),
(303,727,o),
(213,727,cs),
(123,727,o),
(52,647,o),
(52,528,cs),
(52,409,o),
(124,329,o),
(213,329,cs),
(302,329,o),
(374,409,o),
(374,528,cs)
);
},
{
closed = 1;
nodes = (
(715,83,o),
(689,41,o),
(643,41,cs),
(596,41,o),
(571,84,o),
(571,194,cs),
(571,304,o),
(596,347,o),
(643,347,cs),
(690,347,o),
(715,304,o),
(715,194,cs)
);
},
{
closed = 1;
nodes = (
(285,417,o),
(259,375,o),
(213,375,cs),
(166,375,o),
(141,418,o),
(141,528,cs),
(141,638,o),
(166,681,o),
(213,681,cs),
(260,681,o),
(285,638,o),
(285,528,cs)
);
}
);
width = 848;
}
);
unicode = 37;
}
{
glyphname = ampersand;
layers = (
{
hints = (
{
horizontal = 1;
place = (-10,65);
type = Stem;
},
{
horizontal = 1;
place = (683,57);
type = Stem;
},
{
place = (28,112);
type = Stem;
},
{
place = (182,101);
type = Stem;
},
{
place = (432,91);
type = Stem;
}
);
layerId = "8E176FE4-6495-4606-9FA3-C7BE98DB310E";
shapes = (
{
closed = 1;
nodes = (
(733,81,l),
(709,68,o),
(678,57,o),
(652,57,cs),
(604,57,o),
(561,84,o),
(517,136,c),
(555,178,o),
(585,223,o),
(607,259,cs),
(645,321,o),
(654,323,o),
(692,340,cs),
(716,351,o),
(729,355,o),
(729,370,cs),
(729,373,o),
(729,394,o),
(729,394,c),
(490,394,l),
(490,394,o),
(490,372,o),
(490,369,cs),
(490,358,o),
(496,355,o),
(519,344,cs),
(552,328,o),
(557,322,o),
(557,303,cs),
(557,281,o),
(528,224,o),
(486,174,c),
(459,210,o),
(430,254,o),
(402,304,cs),
(378,346,o),
(360,382,o),
(343,416,c),
(465,462,o),
(523,518,o),
(523,598,cs),
(523,662,o),
(474,740,o),
(365,740,cs),
(249,740,o),
(182,663,o),
(182,575,cs),
(182,530,o),
(199,477,o),
(221,423,c),
(101,367,o),
(28,290,o),
(28,192,cs),
(28,84,o),
(103,-10,o),
(254,-10,cs),
(323,-10,o),
(388,21,o),
(446,66,c),
(494,20,o),
(544,-10,o),
(605,-10,cs),
(680,-10,o),
(719,10,o),
(756,37,c)
);
},
{
closed = 1;
nodes = (
(434,569,o),
(425,506,o),
(321,461,c),
(295,515,o),
(283,560,o),
(283,605,cs),
(283,654,o),
(313,688,o),
(359,688,cs),
(398,688,o),
(434,658,o),
(434,598,cs)
);
},
{
closed = 1;
nodes = (
(375,84,o),
(336,68,o),
(296,68,cs),
(194,68,o),
(140,139,o),
(140,229,cs),
(140,284,o),
(167,331,o),
(243,376,c),
(264,333,o),
(287,291,o),
(308,255,cs),
(340,200,o),
(374,149,o),
(409,106,c)
);
}
);
width = 754;
}
);
unicode = 38;
}
{
glyphname = quotesingle;
layers = (
{
hints = (
{
horizontal = 1;
place = (446,294);
type = Stem;
},
{
place = (59,112);
type = Stem;
}
);
layerId = "8E176FE4-6495-4606-9FA3-C7BE98DB310E";
shapes = (
{
closed = 1;
nodes = (
(167,717,o),
(146,740,o),
(113,740,cs),
(80,740,o),
(59,717,o),
(59,685,cs),
(59,648,o),
(82,543,o),
(97,454,c),
(100,450,o),
(106,446,o),
(113,446,cs),
(121,446,o),
(126,450,o),
(129,454,c),
(144,545,o),
(167,648,o),
(167,685,cs)
);
}
);
width = 226;
}
);
unicode = 39;
}
{
glyphname = parenleft;
layers = (
{
hints = (
{
horizontal = 1;
place = (740,-20);
target = down;
type = TopGhost;
},
{
place = (47,112);
type = Stem;
}
);
layerId = "8E176FE4-6495-4606-9FA3-C7BE98DB310E";
shapes = (
{
closed = 1;
nodes = (
(312,-163,l),
(209,-64,o),
(154,93,o),
(154,276,cs),
(154,458,o),
(211,622,o),
(312,715,c),
(282,740,l),
(149,631,o),
(47,455,o),
(47,276,cs),
(47,100,o),
(152,-83,o),
(282,-188,c)
);
}
);
width = 331;
}
);
unicode = 40;
}
{
glyphname = parenright;
layers = (
{
hints = (
{
horizontal = 1;
place = (740,-20);
target = down;
type = TopGhost;
},
{
place = (173,112);
type = Stem;
}
);
layerId = "8E176FE4-6495-4606-9FA3-C7BE98DB310E";
shapes = (
{
closed = 1;
nodes = (
(285,455,o),
(183,631,o),
(50,740,c),
(20,715,l),
(121,622,o),
(178,458,o),
(178,276,cs),
(178,93,o),
(123,-64,o),
(20,-163,c),
(50,-188,l),
(180,-83,o),
(285,100,o),
(285,276,cs)
);
}
);
width = 331;
}
);
unicode = 41;
}
{
glyphname = asterisk;
layers = (
{
hints = (
{
horizontal = 1;
place = (733,-20);
target = down;
type = TopGhost;
},
{
place = (228,53);
type = Stem;
}
);
layerId = "8E176FE4-6495-4606-9FA3-C7BE98DB310E";
shapes = (
{
closed = 1;
nodes = (
(429,632,o),
(411,650,o),
(386,650,cs),
(358,650,o),
(335,621,o),
(320,601,cs),
(310,586,o),
(300,575,o),
(258,552,c),
(260,640,o),
(285,633,o),
(285,689,cs),
(285,716,o),
(268,733,o),
(243,733,cs),
(221,733,o),
(202,718,o),
(202,689,cs),
(202,633,o),
(226,640,o),
(229,552,c),
(183,576,o),
(178,588,o),
(165,606,cs),
(149,629,o),
(124,652,o),
(99,652,cs),
(77,652,o),
(58,633,o),
(58,610,cs),
(58,596,o),
(64,582,o),
(81,572,cs),
(129,543,o),
(138,567,o),
(213,526,c),
(138,485,o),
(129,511,o),
(80,482,cs),
(64,472,o),
(57,459,o),
(57,444,cs),
(57,421,o),
(75,403,o),
(100,403,cs),
(128,403,o),
(151,432,o),
(166,452,cs),
(176,467,o),
(186,478,o),
(228,501,c),
(225,411,o),
(201,420,o),
(201,364,cs),
(201,337,o),
(218,320,o),
(243,320,cs),
(265,320,o),
(284,335,o),
(284,364,cs),
(284,420,o),
(259,412,o),
(257,501,c),
(301,476,o),
(308,465,o),
(321,447,cs),
(337,424,o),
(362,401,o),
(387,401,cs),
(409,401,o),
(428,420,o),
(428,443,cs),
(428,457,o),
(422,472,o),
(405,482,cs),
(357,511,o),
(346,485,o),
(272,526,c),
(347,568,o),
(357,542,o),
(406,571,cs),
(422,581,o),
(429,594,o),
(429,609,cs)
);
}
);
width = 486;
}
);
unicode = 42;
}
{
glyphname = plus;
layers = (
{
hints = (
{
horizontal = 1;
place = (257,73);
type = Stem;
},
{
place = (334,69);
type = Stem;
}
);
layerId = "8E176FE4-6495-4606-9FA3-C7BE98DB310E";
shapes = (
{
closed = 1;
nodes = (
(632,329,l),
(408,329,l),
(408,551,l),
(334,551,l),
(334,329,l),
(110,329,l),
(110,257,l),
(334,257,l),
(334,35,l),
(408,35,l),
(408,257,l),
(632,257,l)
);
}
);
width = 742;
}
);
unicode = 43;
}
{
glyphname = comma;
layers = (
{
hints = (
{
place = (54,137);
type = Stem;
}
);
layerId = "8E176FE4-6495-4606-9FA3-C7BE98DB310E";
shapes = (
{
closed = 1;
nodes = (
(191,98,o),
(169,134,o),
(120,134,cs),
(86,134,o),
(52,109,o),
(52,65,cs),
(52,33,o),
(69,3,o),
(125,-3,c),
(112,-56,o),
(74,-93,o),
(34,-127,c),
(57,-155,l),
(149,-105,o),
(191,-19,o),
(191,45,cs)
);
}
);
width = 240;
}
);
unicode = 44;
}
{
glyphname = hyphen;
layers = (
{
hints = (
{
horizontal = 1;
place = (177,92);
type = Stem;
},
{
place = (40,222);
type = Stem;
}
);
layerId = "8E176FE4-6495-4606-9FA3-C7BE98DB310E";
shapes = (
{
closed = 1;
nodes = (
(257,268,l),
(40,268,l),
(40,177,l),
(257,177,l)
);
}
);
width = 297;
}
);
unicode = 45;
}
{
glyphname = period;
layers = (
{
hints = (
{
horizontal = 1;
place = (-6,138);
type = Stem;
},
{
place = (52,137);
type = Stem;
}
);
layerId = "8E176FE4-6495-4606-9FA3-C7BE98DB310E";
shapes = (
{
closed = 1;
nodes = (
(189,101,o),
(159,133,o),
(120,133,cs),
(81,133,o),
(52,101,o),
(52,64,cs),
(52,25,o),
(81,-6,o),
(120,-6,cs),
(159,-6,o),
(189,25,o),
(189,64,cs)
);
}
);
width = 240;
}
);
unicode = 46;
}
{
glyphname = slash;
layers = (
{
hints = (
{
horizontal = 1;
place = (730,-20);
target = down;
type = TopGhost;
}
);
layerId = "8E176FE4-6495-4606-9FA3-C7BE98DB310E";
shapes = (
{
closed = 1;
nodes = (
(347,730,l),
(-9,-190,l),
(65,-190,l),
(422,730,l)
);
}
);
width = 472;
}
);
unicode = 47;
}
{
glyphname = zero;
layers = (
{
hints = (
{
horizontal = 1;
place = (-9,57);
type = Stem;
},
{
horizontal = 1;
place = (637,57);
type = Stem;
},
{
place = (41,112);
type = Stem;
},
{
place = (410,112);
type = Stem;
}
);
layerId = "8E176FE4-6495-4606-9FA3-C7BE98DB310E";
shapes = (
{
closed = 1;
nodes = (
(522,552,o),
(418,694,o),
(281,694,cs),
(145,694,o),
(41,552,o),
(41,342,cs),
(41,133,o),
(146,-9,o),
(281,-9,cs),
(417,-9,o),
(522,133,o),
(522,342,cs)
);
},
{
closed = 1;
nodes = (
(408,127,o),
(361,47,o),
(281,47,cs),
(201,47,o),
(155,129,o),
(155,342,cs),
(155,556,o),
(201,638,o),
(281,638,cs),
(361,638,o),
(408,556,o),
(408,342,cs)
);
}
);
width = 563;
}
);
unicode = 48;
}
{
glyphname = one;
layers = (
{
hints = (
{
horizontal = 1;
place = (0,20);
type = Stem;
},
{
place = (157,101);
type = Stem;
}
);
layerId = "8E176FE4-6495-4606-9FA3-C7BE98DB310E";
shapes = (
{
closed = 1;
nodes = (
(339,0,l),
(339,0,o),
(339,25,o),
(339,28,cs),
(339,44,o),
(327,49,o),
(304,54,cs),
(268,61,o),
(258,77,o),
(258,105,cs),
(258,155,o),
(258,687,o),
(258,687,c),
(202,687,l),
(48,627,l),
(48,584,l),
(154,584,l),
(154,584,o),
(154,133,o),
(154,105,cs),
(154,74,o),
(142,65,o),
(105,54,cs),
(83,48,o),
(69,43,o),
(69,27,cs),
(69,24,o),
(69,0,o),
(69,0,c)
);
}
);
width = 384;
}
);
unicode = 49;
}
{
glyphname = two;
layers = (
{
hints = (
{
horizontal = 1;
place = (0,100);
type = Stem;
},
{
horizontal = 1;
place = (637,57);
type = Stem;
},
{
place = (33,125);
type = Stem;
},
{
place = (342,112);
type = Stem;
}
);
layerId = "8E176FE4-6495-4606-9FA3-C7BE98DB310E";
shapes = (
{
closed = 1;
nodes = (
(454,625,o),
(370,694,o),
(241,694,cs),
(117,694,o),
(33,611,o),
(33,540,cs),
(33,499,o),
(55,469,o),
(100,469,cs),
(136,469,o),
(158,495,o),
(158,528,cs),
(158,554,o),
(143,574,o),
(123,590,c),
(138,616,o),
(179,639,o),
(220,639,cs),
(291,639,o),
(340,597,o),
(340,524,cs),
(340,452,o),
(299,388,o),
(199,282,cs),
(134,213,o),
(60,133,o),
(20,76,c),
(20,0,l),
(34,0,o),
(407,0,o),
(447,0,c),
(453,168,l),
(418,168,l),
(410,166,o),
(405,162,o),
(401,150,cs),
(387,111,o),
(370,99,o),
(331,99,cs),
(317,99,o),
(135,99,o),
(114,99,c),
(150,145,o),
(184,178,o),
(266,251,cs),
(353,330,o),
(454,405,o),
(454,520,cs)
);
}
);
width = 487;
}
);
unicode = 50;
}
{
glyphname = three;
layers = (
{
hints = (
{
horizontal = 1;
place = (-9,57);
type = Stem;
},
{
horizontal = 1;
place = (343,57);
type = Stem;
},
{
horizontal = 1;
place = (637,57);
type = Stem;
},
{
place = (36,112);
type = Stem;
},
{
place = (349,112);
type = Stem;
}
);
layerId = "8E176FE4-6495-4606-9FA3-C7BE98DB310E";
shapes = (
{
closed = 1;
nodes = (
(461,301,o),
(374,368,o),
(270,379,c),
(366,398,o),
(435,458,o),
(435,542,cs),
(435,627,o),
(350,694,o),
(226,694,cs),
(128,694,o),
(36,640,o),
(36,572,cs),
(36,532,o),
(63,510,o),
(93,510,cs),
(126,510,o),
(150,532,o),
(150,565,cs),
(150,585,o),
(143,597,o),
(129,609,c),
(144,626,o),
(171,639,o),
(213,639,cs),
(277,639,o),
(324,599,o),
(324,536,cs),
(324,448,o),
(271,407,o),
(155,400,c),
(155,345,l),
(282,345,o),
(347,298,o),
(347,199,cs),
(347,117,o),
(296,46,o),
(201,46,cs),
(159,46,o),
(123,60,o),
(109,80,c),
(123,96,o),
(131,113,o),
(131,137,cs),
(131,161,o),
(111,189,o),
(73,189,cs),
(35,189,o),
(11,159,o),
(11,120,cs),
(11,47,o),
(95,-9,o),
(209,-9,cs),
(349,-9,o),
(461,76,o),
(461,198,cs)
);
}
);
width = 488;
}
);
unicode = 51;
}
{
glyphname = four;
layers = (
{
hints = (
{
horizontal = 1;
place = (0,20);
type = Stem;
},
{
horizontal = 1;
place = (175,65);
type = Stem;
},
{
place = (283,101);
type = Stem;
}
);
layerId = "8E176FE4-6495-4606-9FA3-C7BE98DB310E";
shapes = (
{
closed = 1;
nodes = (
(487,241,l),
(386,241,l),
(386,312,o),
(386,693,o),
(386,693,c),
(322,693,l),
(-2,245,l),
(-2,175,l),
(283,175,l),
(283,170,o),
(283,95,o),
(283,92,cs),
(283,66,o),
(274,63,o),
(252,51,cs),
(233,41,o),
(229,39,o),
(229,29,cs),
(229,26,o),
(229,0,o),
(229,0,c),
(438,0,l),
(438,0,o),
(438,26,o),
(438,29,cs),
(438,38,o),
(433,42,o),
(417,51,cs),
(394,64,o),
(386,69,o),
(386,92,cs),
(386,95,o),
(386,172,o),
(386,175,c),
(487,175,l)
);
},
{
closed = 1;
nodes = (
(65,241,l),
(283,543,l),
(283,543,o),
(283,268,o),
(283,241,c)
);
}
);
width = 503;
}
);
unicode = 52;
}
{
glyphname = five;
layers = (
{
hints = (
{
horizontal = 1;
place = (-9,57);
type = Stem;
},
{
horizontal = 1;
place = (366,73);
type = Stem;
},
{
horizontal = 1;
place = (584,100);
type = Stem;
},
{
place = (21,101);
type = Stem;
},
{
place = (361,112);
type = Stem;
}
);
layerId = "8E176FE4-6495-4606-9FA3-C7BE98DB310E";
shapes = (
{
closed = 1;
nodes = (
(473,345,o),
(390,439,o),
(257,439,cs),
(209,439,o),
(159,424,o),
(115,390,c),
(129,584,l),
(428,584,l),
(437,729,l),
(406,729,l),
(398,727,o),
(392,723,o),
(388,713,cs),
(379,692,o),
(371,684,o),
(336,684,cs),
(324,684,o),
(103,684,o),
(76,684,c),
(53,342,l),
(94,314,l),
(130,345,o),
(168,366,o),
(222,366,cs),
(319,366,o),
(361,292,o),
(361,207,cs),
(361,127,o),
(312,46,o),
(215,46,cs),
(174,46,o),
(139,60,o),
(124,80,c),
(138,96,o),
(147,112,o),
(147,138,cs),
(147,162,o),
(128,191,o),
(88,191,cs),
(50,191,o),
(26,159,o),
(26,125,cs),
(26,48,o),
(107,-9,o),
(222,-9,cs),
(354,-9,o),
(473,77,o),
(473,225,cs)
);
}
);
width = 502;
}
);
unicode = 53;
}
{
glyphname = six;
layers = (
{
hints = (
{
horizontal = 1;
place = (-9,57);
type = Stem;
},
{
horizontal = 1;
place = (351,73);
type = Stem;
},
{
horizontal = 1;
place = (637,57);
type = Stem;
},
{
place = (41,112);
type = Stem;
},
{
place = (398,112);
type = Stem;
}
);
layerId = "8E176FE4-6495-4606-9FA3-C7BE98DB310E";
shapes = (
{
closed = 1;
nodes = (
(510,338,o),
(430,424,o),
(316,424,cs),
(246,424,o),
(189,388,o),
(154,349,c),
(156,560,o),
(246,639,o),
(320,639,cs),
(343,639,o),
(361,632,o),
(367,629,c),
(366,621,o),
(363,590,o),
(363,585,cs),
(363,552,o),
(384,525,o),
(421,525,cs),
(455,525,o),
(483,550,o),
(483,589,cs),
(483,640,o),
(432,694,o),
(335,694,cs),
(168,694,o),
(41,533,o),
(41,316,cs),
(41,131,o),
(127,-9,o),
(281,-9,cs),
(418,-9,o),
(510,100,o),
(510,226,cs)
);
},
{
closed = 1;
nodes = (
(395,114,o),
(355,46,o),
(280,46,cs),
(194,46,o),
(155,162,o),
(155,288,c),
(174,312,o),
(226,353,o),
(284,353,cs),
(358,353,o),
(395,297,o),
(395,216,cs)
);
}
);
width = 539;
}
);
unicode = 54;
}
{
glyphname = seven;
layers = (
{
hints = (
{
horizontal = 1;
place = (-6,20);
type = Stem;
},
{
horizontal = 1;
place = (592,92);
type = Stem;
},
{
place = (112,125);
type = Stem;
}
);
layerId = "8E176FE4-6495-4606-9FA3-C7BE98DB310E";
shapes = (
{
closed = 1;
nodes = (
(449,632,o),
(449,682,o),
(449,684,c),
(440,684,o),
(191,684,o),
(149,684,cs),
(109,684,o),
(56,687,o),
(24,690,c),
(22,672,o),
(13,522,o),
(13,522,c),
(48,522,l),
(56,524,o),
(61,528,o),
(65,540,cs),
(79,579,o),
(96,587,o),
(135,587,cs),
(149,587,o),
(345,587,o),
(366,587,c),
(266,440,o),
(112,175,o),
(112,69,cs),
(112,19,o),
(136,-6,o),
(176,-6,cs),
(219,-6,o),
(241,23,o),
(241,84,cs),
(241,285,o),
(326,431,o),
(449,628,c)
);
}
);
width = 444;
}
);
unicode = 55;
}
{
glyphname = eight;
layers = (
{
hints = (
{
horizontal = 1;
place = (-10,57);
type = Stem;
},
{
horizontal = 1;
place = (637,57);
type = Stem;
},
{
place = (22,91);
type = Stem;
},
{
place = (396,91);
type = Stem;
}
);
layerId = "8E176FE4-6495-4606-9FA3-C7BE98DB310E";
shapes = (
{
closed = 1;
nodes = (
(487,283,o),
(433,333,o),
(328,383,c),
(397,411,o),
(451,472,o),
(451,540,cs),
(451,623,o),
(381,694,o),
(260,694,cs),
(147,694,o),
(58,614,o),
(58,511,cs),
(58,442,o),
(92,392,o),
(165,346,c),
(97,316,o),
(22,255,o),
(22,167,cs),
(22,71,o),
(102,-10,o),
(247,-10,cs),
(380,-10,o),
(487,65,o),
(487,184,cs)
);
},
{
closed = 1;
nodes = (
(364,471,o),
(326,433,o),
(277,408,c),
(200,444,o),
(148,476,o),
(148,538,cs),
(148,592,o),
(190,638,o),
(257,638,cs),
(320,638,o),
(364,593,o),
(364,533,cs)
);
},
{
closed = 1;
nodes = (
(392,91,o),
(330,45,o),
(254,45,cs),
(172,45,o),
(112,97,o),
(112,174,cs),
(112,255,o),
(172,297,o),
(216,319,c),
(249,303,o),
(284,287,o),
(316,269,cs),
(363,242,o),
(392,213,o),
(392,162,cs)
);
}
);
width = 509;
}
);
unicode = 56;
}
{
glyphname = nine;
layers = (
{
hints = (
{
horizontal = 1;
place = (-9,57);
type = Stem;
},
{
horizontal = 1;
place = (260,65);
type = Stem;
},
{
horizontal = 1;
place = (637,57);
type = Stem;
},
{
place = (29,112);
type = Stem;
},
{
place = (386,112);
type = Stem;
}
);
layerId = "8E176FE4-6495-4606-9FA3-C7BE98DB310E";
shapes = (
{
closed = 1;
nodes = (
(498,544,o),
(416,694,o),
(255,694,cs),
(119,694,o),
(29,585,o),
(29,459,cs),
(29,347,o),
(109,260,o),
(222,260,cs),
(292,260,o),
(350,295,o),
(386,333,c),
(383,123,o),
(292,46,o),
(215,46,cs),
(190,46,o),
(171,50,o),
(163,56,c),
(164,62,o),
(167,96,o),
(167,101,cs),
(167,134,o),
(148,160,o),
(110,160,cs),
(73,160,o),
(48,132,o),
(48,94,cs),
(48,42,o),
(100,-9,o),
(202,-9,cs),
(372,-9,o),
(498,156,o),
(498,368,cs)
);
},
{
closed = 1;
nodes = (
(366,371,o),
(314,330,o),
(254,330,cs),
(182,330,o),
(143,386,o),
(143,467,cs),
(143,571,o),
(183,638,o),
(258,638,cs),
(345,638,o),
(384,523,o),
(384,396,c)
);
}
);
width = 539;
}
);
unicode = 57;
}
{
glyphname = colon;
layers = (
{
hints = (
{
horizontal = 1;
place = (-6,138);
type = Stem;
},
{
horizontal = 1;
place = (299,138);
type = Stem;
},
{
place = (64,137);
type = Stem;
}
);
layerId = "8E176FE4-6495-4606-9FA3-C7BE98DB310E";
shapes = (
{
closed = 1;
nodes = (
(201,405,o),
(171,437,o),
(132,437,cs),
(94,437,o),
(64,405,o),
(64,368,cs),
(64,330,o),
(94,298,o),
(132,298,cs),
(171,298,o),
(201,330,o),
(201,368,cs)
);
},
{
closed = 1;
nodes = (
(201,101,o),
(171,133,o),
(132,133,cs),
(94,133,o),
(64,101,o),
(64,64,cs),
(64,25,o),
(94,-6,o),
(132,-6,cs),
(171,-6,o),
(201,25,o),
(201,64,cs)
);
}
);
width = 264;
}
);
unicode = 58;
}
{
glyphname = semicolon;
layers = (
{
hints = (
{
horizontal = 1;
place = (299,138);
type = Stem;
},
{
place = (64,137);
type = Stem;
}
);
layerId = "8E176FE4-6495-4606-9FA3-C7BE98DB310E";
shapes = (
{
closed = 1;
nodes = (
(201,405,o),
(171,437,o),
(132,437,cs),
(94,437,o),
(64,405,o),
(64,368,cs),
(64,330,o),
(94,298,o),
(132,298,cs),
(171,298,o),
(201,330,o),
(201,368,cs)
);
},
{
closed = 1;
nodes = (
(203,98,o),
(181,134,o),
(132,134,cs),
(98,134,o),
(64,109,o),
(64,65,cs),
(64,33,o),
(81,3,o),
(137,-3,c),
(125,-56,o),
(86,-93,o),
(46,-127,c),
(69,-155,l),
(161,-105,o),
(203,-19,o),
(203,45,cs)
);
}
);
width = 264;
}
);
unicode = 59;
}
{
glyphname = less;
layers = (
{
layerId = "8E176FE4-6495-4606-9FA3-C7BE98DB310E";
shapes = (
{
closed = 1;
nodes = (
(629,104,l),
(205,293,l),
(629,482,l),
(629,564,l),
(113,329,l),
(113,257,l),
(629,22,l)
);
}
);
width = 742;
}
);
unicode = 60;
}
{
glyphname = equal;
layers = (
{
hints = (
{
horizontal = 1;
place = (144,73);
type = Stem;
},
{
horizontal = 1;
place = (333,73);
type = Stem;
}
);
layerId = "8E176FE4-6495-4606-9FA3-C7BE98DB310E";
shapes = (
{
closed = 1;
nodes = (
(628,406,l),
(114,406,l),
(114,332,l),
(628,332,l)
);
},
{
closed = 1;
nodes = (
(628,218,l),
(114,218,l),
(114,144,l),
(628,144,l)
);
}
);
width = 742;
}
);
unicode = 61;
}
{
glyphname = greater;
layers = (
{
layerId = "8E176FE4-6495-4606-9FA3-C7BE98DB310E";
shapes = (
{
closed = 1;
nodes = (
(629,329,l),
(113,564,l),
(113,482,l),
(537,293,l),
(113,104,l),
(113,22,l),
(629,257,l)
);
}
);
width = 742;
}
);
unicode = 62;
}
{
glyphname = question;
layers = (
{
hints = (
{
horizontal = 1;
place = (-6,138);
type = Stem;
},
{
horizontal = 1;
place = (696,44);
type = Stem;
},
{
place = (34,119);
type = Stem;
},
{
place = (164,91);
type = Stem;
},
{
place = (273,112);
type = Stem;
}
);
layerId = "8E176FE4-6495-4606-9FA3-C7BE98DB310E";
shapes = (
{
closed = 1;
nodes = (
(385,677,o),
(316,740,o),
(210,740,cs),
(91,740,o),
(34,674,o),
(34,617,cs),
(34,583,o),
(57,554,o),
(96,554,cs),
(127,554,o),
(153,576,o),
(153,617,cs),
(153,629,o),
(149,645,o),
(130,661,c),
(142,681,o),
(169,692,o),
(192,692,cs),
(235,692,o),
(275,670,o),
(275,587,cs),
(275,533,o),
(255,500,o),
(215,425,cs),
(173,344,o),
(161,272,o),
(164,212,c),
(164,208,o),
(180,203,o),
(189,203,cs),
(198,203,o),
(213,208,o),
(213,212,c),
(216,294,o),
(230,343,o),
(303,429,cs),
(352,487,o),
(385,528,o),
(385,589,cs)
);
},
{
closed = 1;
nodes = (
(257,100,o),
(226,131,o),
(188,131,cs),
(150,131,o),
(120,100,o),
(120,63,cs),
(120,25,o),
(150,-6,o),
(188,-6,cs),
(226,-6,o),
(257,25,o),
(257,63,cs)
);
}
);
width = 411;
}
);
unicode = 63;
}
{
glyphname = at;
layers = (
{
hints = (
{
horizontal = 1;
place = (-208,57);
type = Stem;
},
{
horizontal = 1;
place = (-3,57);
type = Stem;
},
{
horizontal = 1;
place = (387,44);
type = Stem;
},
{
horizontal = 1;
place = (585,50);
type = Stem;
},
{
place = (70,82);
type = Stem;
},
{
place = (289,101);
type = Stem;
},
{
place = (847,53);
type = Stem;
}
);
layerId = "8E176FE4-6495-4606-9FA3-C7BE98DB310E";
shapes = (
{
closed = 1;
nodes = (
(893,505,o),
(750,635,o),
(534,635,cs),
(270,635,o),
(63,422,o),
(63,180,cs),
(63,-50,o),
(228,-208,o),
(484,-208,cs),
(594,-208,o),
(701,-174,o),
(794,-109,c),
(774,-69,l),
(691,-125,o),
(598,-156,o),
(484,-156,cs),
(281,-156,o),
(148,-25,o),
(148,174,cs),
(148,396,o),
(316,585,o),
(544,585,cs),
(729,585,o),
(838,466,o),
(838,322,cs),
(838,181,o),
(752,47,o),
(657,47,cs),
(639,47,o),
(633,55,o),
(633,79,cs),
(633,93,o),
(640,120,o),
(645,140,cs),
(718,424,l),
(668,424,l),
(636,395,l),
(616,421,o),
(590,431,o),
(550,431,cs),
(497,431,o),
(443,406,o),
(395,363,cs),
(328,301,o),
(282,215,o),
(282,133,cs),
(282,47,o),
(325,-3,o),
(401,-3,cs),
(461,-3,o),
(497,22,o),
(538,57,c),
(540,28,o),
(558,-8,o),
(613,-8,cs),
(769,-8,o),
(893,151,o),
(893,318,cs)
);
},
{
closed = 1;
nodes = (
(595,332,o),
(585,293,o),
(579,271,cs),
(529,99,l),
(507,73,o),
(474,56,o),
(449,56,cs),
(406,56,o),
(386,81,o),
(386,133,cs),
(386,192,o),
(416,274,o),
(460,330,cs),
(488,367,o),
(520,387,o),
(554,387,cs),
(577,387,o),
(595,375,o),
(595,348,cs)
);
}
);
width = 942;
}
);
unicode = 64;
}
{
glyphname = A;
layers = (
{
hints = (
{
horizontal = 1;
place = (0,20);
type = Stem;
},
{
horizontal = 1;
place = (198,57);
type = Stem;
},
{
horizontal = 1;
place = (741,-20);
target = down;
type = TopGhost;
},
{
place = (1,190);
type = Stem;
},
{
place = (457,232);
type = Stem;
}
);
layerId = "8E176FE4-6495-4606-9FA3-C7BE98DB310E";
shapes = (
{
closed = 1;
nodes = (
(682,0,l),
(682,0,o),
(682,25,o),
(682,28,cs),
(682,40,o),
(678,41,o),
(656,52,cs),
(634,63,o),
(621,79,o),
(612,102,cs),
(354,735,ls),
(352,741,o),
(350,741,o),
(345,741,cs),
(341,741,o),
(336,737,o),
(333,734,cs),
(312,717,o),
(285,697,o),
(264,683,cs),
(258,679,o),
(257,679,o),
(257,673,cs),
(257,670,o),
(259,666,o),
(261,662,cs),
(282,619,l),
(66,110,ls),
(52,77,o),
(45,71,o),
(14,50,cs),
(-3,39,o),
(-6,35,o),
(-6,25,cs),
(-6,22,o),
(-6,0,o),
(-6,0,c),
(184,0,l),
(184,0,o),
(184,18,o),
(184,21,cs),
(184,33,o),
(179,38,o),
(159,47,cs),
(142,54,o),
(134,63,o),
(134,79,cs),
(134,89,o),
(138,106,o),
(144,121,cs),
(175,198,l),
(455,198,l),
(486,119,ls),
(493,101,o),
(498,86,o),
(498,77,cs),
(498,66,o),
(490,58,o),
(475,49,cs),
(455,38,o),
(450,35,o),
(450,24,cs),
(450,21,o),
(450,0,o),
(450,0,c)
);
},
{
closed = 1;
nodes = (
(199,256,l),
(315,543,l),
(431,256,l)
);
}
);
width = 676;
}
);
unicode = 65;
}
{
glyphname = B;
layers = (
{
hints = (
{
horizontal = 1;
place = (0,57);
type = Stem;
},
{
horizontal = 1;
place = (352,57);
type = Stem;
},
{
horizontal = 1;
place = (673,57);
type = Stem;
},
{
place = (97,112);
type = Stem;
},
{
place = (434,125);
type = Stem;
}
);
layerId = "8E176FE4-6495-4606-9FA3-C7BE98DB310E";
shapes = (
{
closed = 1;
nodes = (
(588,313,o),
(497,373,o),
(380,384,c),
(488,401,o),
(552,474,o),
(552,553,cs),
(552,654,o),
(476,730,o),
(322,730,cs),
(286,730,o),
(36,730,o),
(36,730,c),
(36,730,o),
(36,705,o),
(36,702,cs),
(36,691,o),
(39,689,o),
(61,679,cs),
(86,667,o),
(90,660,o),
(90,638,cs),
(90,610,o),
(90,119,o),
(90,91,cs),
(90,67,o),
(85,63,o),
(60,51,cs),
(38,40,o),
(34,39,o),
(34,28,cs),
(34,25,o),
(34,0,o),
(34,0,c),
(34,0,o),
(316,0,o),
(344,0,cs),
(498,0,o),
(588,93,o),
(588,195,cs)
);
},
{
closed = 1;
nodes = (
(428,461,o),
(383,409,o),
(279,409,cs),
(277,409,o),
(203,409,o),
(202,409,c),
(202,447,o),
(202,661,o),
(202,674,c),
(204,674,o),
(269,674,o),
(272,674,cs),
(389,674,o),
(428,622,o),
(428,541,cs)
);
},
{
closed = 1;
nodes = (
(464,108,o),
(407,57,o),
(281,57,cs),
(276,57,o),
(205,57,o),
(202,57,c),
(202,74,o),
(202,320,o),
(202,350,c),
(203,350,o),
(264,350,o),
(266,350,cs),
(407,350,o),
(464,301,o),
(464,202,cs)
);
}
);
width = 617;
}
);
unicode = 66;
}
{
glyphname = C;
layers = (
{
hints = (
{
horizontal = 1;
place = (-10,65);
type = Stem;
},
{
horizontal = 1;
place = (683,57);
type = Stem;
},
{
place = (40,125);
type = Stem;
}
);
layerId = "8E176FE4-6495-4606-9FA3-C7BE98DB310E";
shapes = (
{
closed = 1;
nodes = (
(582,180,l),
(562,149,o),
(488,54,o),
(364,54,cs),
(245,54,o),
(158,166,o),
(158,366,cs),
(158,591,o),
(271,680,o),
(364,680,cs),
(444,680,o),
(502,623,o),
(529,536,cs),
(532,528,o),
(535,523,o),
(547,523,cs),
(549,523,o),
(583,523,o),
(583,523,c),
(583,523,o),
(583,685,o),
(583,706,c),
(581,706,o),
(559,706,o),
(559,706,c),
(547,706,o),
(532,690,o),
(523,690,cs),
(516,690,o),
(510,693,o),
(503,697,cs),
(453,729,o),
(409,740,o),
(346,740,cs),
(197,740,o),
(33,611,o),
(33,362,cs),
(33,175,o),
(137,-10,o),
(356,-10,cs),
(496,-10,o),
(593,84,o),
(618,141,c)
);
}
);
width = 621;
}
);
unicode = 67;
}
{
glyphname = D;
layers = (
{
hints = (
{
horizontal = 1;
place = (0,57);
type = Stem;
},
{
horizontal = 1;
place = (673,57);
type = Stem;
},
{
place = (97,112);
type = Stem;
},
{
place = (543,125);
type = Stem;
}
);
layerId = "8E176FE4-6495-4606-9FA3-C7BE98DB310E";
shapes = (
{
closed = 1;
nodes = (
(661,581,o),
(516,730,o),
(279,730,cs),
(248,730,o),
(36,730,o),
(36,730,c),
(36,730,o),
(36,705,o),
(36,702,cs),
(36,691,o),
(39,689,o),
(61,679,cs),
(86,667,o),
(90,660,o),
(90,638,cs),
(90,610,o),
(90,119,o),
(90,91,cs),
(90,67,o),
(85,63,o),
(60,51,cs),
(38,40,o),
(34,39,o),
(34,28,cs),
(34,25,o),
(34,0,o),
(34,0,c),
(34,0,o),
(286,0,o),
(305,0,cs),
(511,0,o),
(661,148,o),
(661,365,cs)
);
},
{
closed = 1;
nodes = (
(536,150,o),
(439,57,o),
(268,57,cs),
(265,57,o),
(225,57,o),
(202,57,c),
(202,673,l),
(202,673,o),
(253,673,o),
(259,673,cs),
(433,673,o),
(536,571,o),
(536,365,cs)
);
}
);
width = 694;
}
);
unicode = 68;
}
{
glyphname = E;
layers = (
{
hints = (
{
horizontal = 1;
place = (0,57);
type = Stem;
},
{
horizontal = 1;
place = (344,57);
type = Stem;
},
{
horizontal = 1;
place = (673,57);
type = Stem;
},
{
place = (97,112);
type = Stem;
}
);
layerId = "8E176FE4-6495-4606-9FA3-C7BE98DB310E";
shapes = (
{
closed = 1;
nodes = (
(562,0,l),
(562,3,o),
(562,160,o),
(562,172,c),
(560,172,o),
(534,172,o),
(533,172,c),
(520,172,o),
(517,166,o),
(511,152,cs),
(483,81,o),
(461,58,o),
(401,58,cs),
(397,58,o),
(210,58,o),
(202,58,c),
(202,58,o),
(202,325,o),
(202,344,c),
(205,344,o),
(285,344,o),
(287,344,cs),
(321,344,o),
(331,337,o),
(348,302,c),
(354,292,o),
(361,281,o),
(377,281,cs),
(379,281,o),
(400,281,o),
(405,281,c),
(405,284,o),
(405,467,o),
(405,470,c),
(400,470,o),
(382,470,o),
(380,470,cs),
(363,470,o),
(359,463,o),
(352,452,c),
(334,416,o),
(325,403,o),
(285,403,cs),
(283,403,o),
(205,403,o),
(202,403,c),
(202,443,o),
(202,670,o),
(202,672,c),
(209,672,o),
(349,672,o),
(353,672,cs),
(430,672,o),
(438,659,o),
(463,597,cs),
(467,586,o),
(474,581,o),
(490,581,cs),
(492,581,o),
(512,581,o),
(514,581,c),
(514,589,o),
(514,737,o),
(514,737,c),
(496,735,o),
(442,730,o),
(418,730,cs),
(402,730,o),
(36,730,o),
(36,730,c),
(36,730,o),
(36,705,o),
(36,702,cs),
(36,691,o),
(39,689,o),
(61,679,cs),
(86,667,o),
(90,660,o),
(90,638,cs),
(90,610,o),
(90,119,o),
(90,91,cs),
(90,67,o),
(85,63,o),
(60,51,cs),
(38,40,o),
(34,39,o),
(34,28,cs),
(34,25,o),
(34,0,o),
(34,0,c)
);
}
);
width = 580;
}
);
unicode = 69;
}
{
glyphname = F;
layers = (
{
hints = (
{
horizontal = 1;
place = (0,20);
type = Stem;
},
{
horizontal = 1;
place = (341,57);
type = Stem;
},
{
horizontal = 1;
place = (673,57);
type = Stem;
},
{
place = (97,112);
type = Stem;
}
);
layerId = "8E176FE4-6495-4606-9FA3-C7BE98DB310E";
shapes = (
{
closed = 1;
nodes = (
(547,587,o),
(547,737,o),
(547,737,c),
(529,735,o),
(482,730,o),
(451,730,cs),
(435,730,o),
(36,730,o),
(36,730,c),
(36,730,o),
(36,705,o),
(36,702,cs),
(36,691,o),
(39,689,o),
(61,679,cs),
(86,667,o),
(90,660,o),
(90,638,cs),
(90,610,o),
(90,119,o),
(90,91,cs),
(90,67,o),
(85,63,o),
(60,51,cs),
(38,40,o),
(34,39,o),
(34,28,cs),
(34,25,o),
(34,0,o),
(34,0,c),
(256,0,l),
(256,0,o),
(256,25,o),
(256,28,cs),
(256,39,o),
(253,41,o),
(232,51,cs),
(207,64,o),
(202,70,o),
(202,91,cs),
(202,119,o),
(202,322,o),
(202,341,c),
(205,341,o),
(308,341,o),
(310,341,cs),
(345,341,o),
(353,334,o),
(374,299,cs),
(380,290,o),
(387,278,o),
(403,278,c),
(404,278,o),
(423,278,o),
(428,278,c),
(428,281,o),
(428,464,o),
(428,467,c),
(426,467,o),
(407,467,o),
(405,467,cs),
(387,467,o),
(382,460,o),
(376,449,cs),
(358,413,o),
(348,400,o),
(308,400,cs),
(306,400,o),
(205,400,o),
(202,400,c),
(202,440,o),
(202,670,o),
(202,672,c),
(209,672,o),
(379,672,o),
(383,672,cs),
(460,672,o),
(476,654,o),
(494,596,c),
(496,586,o),
(502,580,o),
(519,580,cs),
(521,580,o),
(545,580,o),
(547,580,c)
);
}
);
width = 557;
}
);
unicode = 70;
}
{
glyphname = G;
layers = (
{
hints = (
{
horizontal = 1;
place = (-10,57);
type = Stem;
},
{
horizontal = 1;
place = (683,57);
type = Stem;
},
{
place = (40,125);
type = Stem;
},
{
place = (534,112);
type = Stem;
}
);
layerId = "8E176FE4-6495-4606-9FA3-C7BE98DB310E";
shapes = (
{
closed = 1;
nodes = (
(693,60,o),
(693,78,o),
(693,81,cs),
(693,92,o),
(690,93,o),
(671,100,cs),
(641,111,o),
(637,121,o),
(637,144,cs),
(637,151,o),
(637,251,o),
(637,258,cs),
(637,277,o),
(640,304,o),
(641,315,c),
(641,315,o),
(472,315,o),
(470,315,c),
(470,315,o),
(470,289,o),
(470,286,cs),
(470,273,o),
(473,273,o),
(495,264,cs),
(516,255,o),
(527,249,o),
(527,233,cs),
(527,133,ls),
(527,86,o),
(495,46,o),
(390,46,cs),
(260,46,o),
(158,168,o),
(158,365,cs),
(158,589,o),
(263,682,o),
(365,682,cs),
(450,682,o),
(514,623,o),
(542,536,cs),
(545,528,o),
(548,523,o),
(560,523,cs),
(562,523,o),
(595,523,o),
(595,523,c),
(595,523,o),
(595,685,o),
(595,706,c),
(593,706,o),
(572,706,o),
(571,706,c),
(560,706,o),
(548,691,o),
(538,691,cs),
(531,691,o),
(525,695,o),
(516,700,cs),
(464,730,o),
(416,740,o),
(360,740,cs),
(201,740,o),
(33,607,o),
(33,362,cs),
(33,175,o),
(146,-10,o),
(392,-10,cs),
(510,-10,o),
(620,29,o),
(693,56,c)
);
}
);
width = 698;
}
);
unicode = 71;
}
{
glyphname = H;
layers = (
{
hints = (
{
horizontal = 1;
place = (0,20);
type = Stem;
},
{
horizontal = 1;
place = (349,57);
type = Stem;
},
{
horizontal = 1;
place = (730,-20);
target = down;
type = TopGhost;
},
{
place = (95,112);
type = Stem;
},
{
place = (542,112);
type = Stem;
}
);
layerId = "8E176FE4-6495-4606-9FA3-C7BE98DB310E";
shapes = (
{
closed = 1;
nodes = (
(703,0,l),
(703,0,o),
(703,25,o),
(703,28,cs),
(703,39,o),
(700,41,o),
(679,51,cs),
(654,64,o),
(649,70,o),
(649,91,cs),
(649,119,o),
(649,610,o),
(649,638,cs),
(649,664,o),
(653,666,o),
(679,679,cs),
(700,689,o),
(703,691,o),
(703,702,cs),
(703,705,o),
(703,730,o),
(703,730,c),
(483,730,l),
(483,730,o),
(483,705,o),
(483,702,cs),
(483,691,o),
(486,689,o),
(508,679,cs),
(532,667,o),
(537,664,o),
(537,638,cs),
(537,627,o),
(537,430,o),
(537,406,c),
(202,406,l),
(202,430,o),
(202,627,o),
(202,638,cs),
(202,664,o),
(206,666,o),
(231,679,cs),
(252,689,o),
(255,691,o),
(255,702,cs),
(255,705,o),
(255,730,o),
(255,730,c),
(35,730,l),
(35,730,o),
(35,705,o),
(35,702,cs),
(35,691,o),
(38,690,o),
(61,679,cs),
(85,668,o),
(90,660,o),
(90,638,cs),
(90,610,o),
(90,119,o),
(90,91,cs),
(90,67,o),
(86,63,o),
(61,51,cs),
(38,40,o),
(35,39,o),
(35,28,cs),
(35,25,o),
(35,0,o),
(35,0,c),
(255,0,l),
(255,0,o),
(255,25,o),
(255,28,cs),
(255,39,o),
(252,41,o),
(231,51,cs),
(206,64,o),
(202,70,o),
(202,91,cs),
(202,119,o),
(202,346,o),
(202,346,c),
(537,346,l),
(537,319,o),
(537,104,o),
(537,91,cs),
(537,67,o),
(533,63,o),
(508,51,cs),
(486,40,o),
(483,39,o),
(483,28,cs),
(483,25,o),
(483,0,o),
(483,0,c)
);
}
);
width = 739;
}
);
unicode = 72;
}
{
glyphname = I;
layers = (
{
hints = (
{
horizontal = 1;
place = (0,20);
type = Stem;
},
{
horizontal = 1;
place = (730,-20);
target = down;
type = TopGhost;
},
{
place = (99,112);
type = Stem;
}
);
layerId = "8E176FE4-6495-4606-9FA3-C7BE98DB310E";
shapes = (
{
closed = 1;
nodes = (
(258,0,l),
(258,0,o),
(258,25,o),
(258,28,cs),
(258,39,o),
(254,40,o),
(233,51,cs),
(209,63,o),
(204,67,o),
(204,91,cs),
(204,119,o),
(204,610,o),
(204,638,cs),
(204,664,o),
(208,666,o),
(233,679,cs),
(254,689,o),
(258,691,o),
(258,702,cs),
(258,705,o),
(258,730,o),
(258,730,c),
(37,730,l),
(37,730,o),
(37,705,o),
(37,702,cs),
(37,691,o),
(41,689,o),
(63,679,cs),
(87,667,o),
(92,660,o),
(92,638,cs),
(92,610,o),
(92,119,o),
(92,91,cs),
(92,67,o),
(88,63,o),
(63,51,cs),
(40,40,o),
(37,39,o),
(37,28,cs),
(37,25,o),
(37,0,o),
(37,0,c)
);
}
);
width = 296;
}
);
unicode = 73;
}
{
glyphname = J;
layers = (
{
hints = (
{
horizontal = 1;
place = (-10,57);
type = Stem;
},
{
horizontal = 1;
place = (730,-20);
target = down;
type = TopGhost;
},
{
place = (10,125);
type = Stem;
},
{
place = (258,112);
type = Stem;
}
);
layerId = "8E176FE4-6495-4606-9FA3-C7BE98DB310E";
shapes = (
{
closed = 1;
nodes = (
(417,705,o),
(417,730,o),
(417,730,c),
(195,730,l),
(195,730,o),
(195,705,o),
(195,702,cs),
(195,691,o),
(199,689,o),
(220,679,cs),
(245,667,o),
(251,660,o),
(251,638,cs),
(251,610,o),
(251,194,o),
(251,166,cs),
(251,76,o),
(205,42,o),
(156,42,cs),
(133,42,o),
(105,57,o),
(101,71,c),
(119,83,o),
(126,104,o),
(126,124,cs),
(126,153,o),
(104,175,o),
(68,175,cs),
(28,175,o),
(3,141,o),
(3,98,cs),
(3,43,o),
(62,-10,o),
(155,-10,cs),
(289,-10,o),
(364,84,o),
(364,208,cs),
(364,236,o),
(364,610,o),
(364,638,cs),
(364,664,o),
(368,666,o),
(393,679,cs),
(414,689,o),
(417,691,o),
(417,702,cs)
);
}
);
width = 442;
}
);
unicode = 74;
}
{
glyphname = K;
layers = (
{
hints = (
{
horizontal = 1;
place = (0,20);
type = Stem;
},
{
horizontal = 1;
place = (730,-20);
target = down;
type = TopGhost;
},
{
place = (97,112);
type = Stem;
},
{
place = (431,255);
type = Stem;
}
);
layerId = "8E176FE4-6495-4606-9FA3-C7BE98DB310E";
shapes = (
{
closed = 1;
nodes = (
(679,0,l),
(679,0,o),
(679,22,o),
(679,25,cs),
(679,35,o),
(675,36,o),
(652,48,cs),
(625,63,o),
(603,82,o),
(590,96,cs),
(547,139,o),
(289,419,o),
(289,419,c),
(289,419,o),
(473,590,o),
(505,620,cs),
(540,651,o),
(553,662,o),
(592,676,cs),
(624,688,o),
(625,688,o),
(625,703,cs),
(625,706,o),
(625,730,o),
(625,730,c),
(399,730,l),
(399,730,o),
(399,708,o),
(399,704,cs),
(399,696,o),
(401,693,o),
(416,687,cs),
(428,683,o),
(441,677,o),
(441,668,cs),
(441,646,o),
(399,603,o),
(383,587,cs),
(357,562,o),
(202,412,o),
(202,412,c),
(202,412,o),
(202,628,o),
(202,638,cs),
(202,664,o),
(206,666,o),
(231,679,cs),
(252,689,o),
(255,691,o),
(255,702,cs),
(255,705,o),
(255,730,o),
(255,730,c),
(35,730,l),
(35,730,o),
(35,705,o),
(35,702,cs),
(35,691,o),
(39,689,o),
(60,679,cs),
(85,667,o),
(90,660,o),
(90,638,cs),
(90,610,o),
(90,119,o),
(90,91,cs),
(90,67,o),
(86,64,o),
(60,51,cs),
(38,41,o),
(35,39,o),
(35,28,cs),
(35,25,o),
(35,0,o),
(35,0,c),
(255,0,l),
(255,0,o),
(255,25,o),
(255,28,cs),
(255,39,o),
(252,41,o),
(231,51,cs),
(206,64,o),
(202,70,o),
(202,91,cs),
(202,119,o),
(202,360,o),
(202,360,c),
(202,360,o),
(419,121,o),
(439,100,cs),
(449,90,o),
(460,77,o),
(462,71,cs),
(465,64,o),
(460,55,o),
(449,49,cs),
(431,39,o),
(424,36,o),
(424,27,cs),
(424,24,o),
(424,0,o),
(424,0,c)
);
}
);
width = 660;
}
);
unicode = 75;
}
{
glyphname = L;
layers = (
{
hints = (
{
horizontal = 1;
place = (0,57);
type = Stem;
},
{
horizontal = 1;
place = (730,-20);
target = down;
type = TopGhost;
},
{
place = (97,112);
type = Stem;
}
);
layerId = "8E176FE4-6495-4606-9FA3-C7BE98DB310E";
shapes = (
{
closed = 1;
nodes = (
(560,0,l),
(560,3,o),
(560,162,o),
(560,173,c),
(558,173,o),
(532,173,o),
(531,173,c),
(518,173,o),
(515,167,o),
(509,153,cs),
(480,82,o),
(459,58,o),
(399,58,cs),
(395,58,o),
(210,58,o),
(202,58,c),
(202,58,o),
(202,618,o),
(202,638,cs),
(202,664,o),
(206,666,o),
(231,679,cs),
(252,689,o),
(255,691,o),
(255,702,cs),
(255,705,o),
(255,730,o),
(255,730,c),
(36,730,l),
(36,730,o),
(36,705,o),
(36,702,cs),
(36,691,o),
(39,689,o),
(61,679,cs),
(86,667,o),
(90,660,o),
(90,638,cs),
(90,618,o),
(90,119,o),
(90,91,cs),
(90,67,o),
(85,63,o),
(60,51,cs),
(38,40,o),
(34,39,o),
(34,28,cs),
(34,25,o),
(34,0,o),
(34,0,c)
);
}
);
width = 566;
}
);
unicode = 76;
}
{
glyphname = M;
layers = (
{
hints = (
{
horizontal = 1;
place = (-2,20);
type = Stem;
},
{
horizontal = 1;
place = (647,83);
type = Stem;
},
{
place = (97,125);
type = Stem;
},
{
place = (667,112);
type = Stem;
}
);
layerId = "8E176FE4-6495-4606-9FA3-C7BE98DB310E";
shapes = (
{
closed = 1;
nodes = (
(825,0,l),
(825,0,o),
(825,25,o),
(825,28,cs),
(825,39,o),
(821,40,o),
(800,51,cs),
(776,63,o),
(771,70,o),
(771,91,cs),
(771,119,o),
(771,610,o),
(771,638,cs),
(771,664,o),
(775,667,o),
(800,679,cs),
(822,690,o),
(825,691,o),
(825,702,cs),
(825,705,o),
(825,730,o),
(825,730,c),
(818,730,o),
(621,730,o),
(621,730,c),
(434,178,l),
(247,730,l),
(35,730,l),
(35,730,o),
(35,705,o),
(35,702,cs),
(35,691,o),
(39,689,o),
(61,679,cs),
(85,667,o),
(90,660,o),
(90,638,cs),
(90,610,o),
(90,140,o),
(90,112,cs),
(90,88,o),
(82,72,o),
(61,56,cs),
(39,39,o),
(35,38,o),
(35,29,cs),
(35,26,o),
(35,0,o),
(35,0,c),
(215,0,l),
(215,0,o),
(215,26,o),
(215,29,cs),
(215,38,o),
(210,39,o),
(189,55,cs),
(168,71,o),
(162,88,o),
(162,112,cs),
(162,134,o),
(162,643,o),
(162,643,c),
(166,643,l),
(383,10,ls),
(385,4,o),
(390,-2,o),
(409,-2,cs),
(428,-2,o),
(434,3,o),
(436,10,cs),
(656,647,l),
(660,647,l),
(660,647,o),
(660,114,o),
(660,91,cs),
(660,67,o),
(656,64,o),
(630,51,cs),
(609,41,o),
(606,39,o),
(606,28,cs),
(606,25,o),
(606,0,o),
(606,0,c)
);
}
);
width = 861;
}
);
unicode = 77;
}
{
glyphname = N;
layers = (
{
hints = (
{
horizontal = 1;
place = (-6,20);
type = Stem;
},
{
horizontal = 1;
place = (730,-20);
target = down;
type = TopGhost;
},
{
place = (97,125);
type = Stem;
},
{
place = (553,125);
type = Stem;
}
);
layerId = "8E176FE4-6495-4606-9FA3-C7BE98DB310E";
shapes = (
{
closed = 1;
nodes = (
(669,706,o),
(669,730,o),
(669,730,c),
(491,730,l),
(491,730,o),
(491,707,o),
(491,704,cs),
(491,694,o),
(497,693,o),
(517,678,cs),
(540,660,o),
(546,642,o),
(546,617,cs),
(546,590,o),
(546,215,o),
(546,215,c),
(213,730,l),
(35,730,l),
(35,730,o),
(35,706,o),
(35,703,cs),
(35,692,o),
(39,691,o),
(61,680,cs),
(86,668,o),
(90,661,o),
(90,639,cs),
(90,611,o),
(90,139,o),
(90,111,cs),
(90,87,o),
(82,71,o),
(61,55,cs),
(39,38,o),
(35,37,o),
(35,28,cs),
(35,25,o),
(35,0,o),
(35,0,c),
(214,0,l),
(214,0,o),
(214,25,o),
(214,28,cs),
(214,37,o),
(208,39,o),
(188,54,cs),
(166,71,o),
(159,87,o),
(159,112,cs),
(159,139,o),
(159,615,o),
(159,615,c),
(565,-6,l),
(615,-6,l),
(615,53,o),
(615,590,o),
(615,618,cs),
(615,643,o),
(622,660,o),
(643,676,cs),
(665,692,o),
(669,693,o),
(669,703,cs)
);
}
);
width = 701;
}
);
unicode = 78;
}
{
glyphname = O;
layers = (
{
hints = (
{
horizontal = 1;
place = (-10,57);
type = Stem;
},
{
horizontal = 1;
place = (683,57);
type = Stem;
},
{
place = (40,125);
type = Stem;
},
{
place = (576,125);
type = Stem;
}
);
layerId = "8E176FE4-6495-4606-9FA3-C7BE98DB310E";
shapes = (
{
closed = 1;
nodes = (
(694,581,o),
(557,740,o),
(363,740,cs),
(170,740,o),
(33,581,o),
(33,365,cs),
(33,144,o),
(170,-10,o),
(363,-10,cs),
(557,-10,o),
(694,148,o),
(694,365,cs)
);
},
{
closed = 1;
nodes = (
(569,156,o),
(487,49,o),
(363,49,cs),
(240,49,o),
(158,161,o),
(158,365,cs),
(158,569,o),
(240,681,o),
(363,681,cs),
(487,681,o),
(569,569,o),
(569,365,cs)
);
}
);
width = 727;
}
);
unicode = 79;
}
{
glyphname = P;
layers = (
{
hints = (
{
horizontal = 1;
place = (0,20);
type = Stem;
},
{
horizontal = 1;
place = (323,57);
type = Stem;
},
{
horizontal = 1;
place = (673,57);
type = Stem;
},
{
place = (97,112);
type = Stem;
},
{
place = (440,125);
type = Stem;
}
);
layerId = "8E176FE4-6495-4606-9FA3-C7BE98DB310E";
shapes = (
{
closed = 1;
nodes = (
(558,637,o),
(476,730,o),
(309,730,cs),
(273,730,o),
(36,730,o),
(36,730,c),
(36,730,o),
(36,705,o),
(36,702,cs),
(36,691,o),
(39,689,o),
(61,679,cs),
(86,667,o),
(90,660,o),
(90,638,cs),
(90,610,o),
(90,119,o),
(90,91,cs),
(90,67,o),
(85,63,o),
(60,51,cs),
(38,40,o),
(34,39,o),
(34,28,cs),
(34,25,o),
(34,0,o),
(34,0,c),
(256,0,l),
(256,0,o),
(256,25,o),
(256,28,cs),
(256,39,o),
(252,41,o),
(232,51,cs),
(208,64,o),
(202,67,o),
(202,91,cs),
(202,119,o),
(202,323,o),
(202,323,c),
(202,323,o),
(279,323,o),
(281,323,cs),
(480,323,o),
(558,429,o),
(558,534,cs)
);
},
{
closed = 1;
nodes = (
(433,443,o),
(383,383,o),
(275,383,c),
(274,383,o),
(204,383,o),
(202,383,c),
(202,420,o),
(202,672,o),
(202,672,c),
(202,672,o),
(268,672,o),
(271,672,cs),
(380,672,o),
(433,612,o),
(433,532,cs)
);
}
);
width = 571;
}
);
unicode = 80;
}
{
glyphname = Q;
layers = (
{
hints = (
{
horizontal = 1;
place = (-167,83);
type = Stem;
},
{
horizontal = 1;
place = (683,57);
type = Stem;
},
{
place = (40,125);
type = Stem;
},
{
place = (576,125);
type = Stem;
}
);
layerId = "8E176FE4-6495-4606-9FA3-C7BE98DB310E";
shapes = (
{
closed = 1;
nodes = (
(732,-69,l),
(714,-75,o),
(695,-84,o),
(668,-84,cs),
(620,-84,o),
(592,-74,o),
(537,-47,cs),
(495,-26,o),
(455,-10,o),
(426,-2,c),
(586,28,o),
(694,172,o),
(694,365,cs),
(694,581,o),
(558,740,o),
(364,740,cs),
(170,740,o),
(33,581,o),
(33,365,cs),
(33,174,o),
(135,34,o),
(287,0,c),
(325,-21,o),
(353,-39,o),
(417,-88,cs),
(469,-127,o),
(522,-167,o),
(594,-167,cs),
(664,-167,o),
(711,-132,o),
(732,-110,c)
);
},
{
closed = 1;
nodes = (
(569,156,o),
(487,46,o),
(364,46,cs),
(240,46,o),
(158,161,o),
(158,365,cs),
(158,569,o),
(240,681,o),
(364,681,cs),
(487,681,o),
(569,569,o),
(569,365,cs)
);
}
);
width = 729;
}
);
unicode = 81;
}
{
glyphname = R;
layers = (
{
hints = (
{
horizontal = 1;
place = (0,20);
type = Stem;
},
{
horizontal = 1;
place = (335,57);
type = Stem;
},
{
horizontal = 1;
place = (673,57);
type = Stem;
},
{
place = (97,112);
type = Stem;
},
{
place = (449,125);
type = Stem;
}
);
layerId = "8E176FE4-6495-4606-9FA3-C7BE98DB310E";
shapes = (
{
closed = 1;
nodes = (
(655,0,l),
(655,0,o),
(655,24,o),
(655,27,cs),
(655,38,o),
(646,41,o),
(617,53,cs),
(590,65,o),
(572,91,o),
(547,132,cs),
(444,303,o),
(419,332,o),
(374,350,c),
(506,372,o),
(567,455,o),
(567,538,cs),
(567,644,o),
(486,730,o),
(328,730,cs),
(293,730,o),
(36,730,o),
(36,730,c),
(36,730,o),
(36,705,o),
(36,702,cs),
(36,691,o),
(39,689,o),
(61,679,cs),
(86,667,o),
(90,660,o),
(90,638,cs),
(90,610,o),
(90,119,o),
(90,91,cs),
(90,67,o),
(85,63,o),
(60,51,cs),
(38,40,o),
(34,39,o),
(34,28,cs),
(34,25,o),
(34,0,o),
(34,0,c),
(256,0,l),
(256,0,o),
(256,25,o),
(256,28,cs),
(256,39,o),
(252,41,o),
(231,51,cs),
(206,64,o),
(202,70,o),
(202,91,cs),
(202,119,o),
(202,335,o),
(202,335,c),
(208,335,o),
(229,335,o),
(233,334,cs),
(293,326,o),
(332,269,o),
(390,175,cs),
(398,162,o),
(487,21,o),
(500,0,c)
);
},
{
closed = 1;
nodes = (
(440,441,o),
(384,394,o),
(276,394,cs),
(274,394,o),
(204,394,o),
(202,394,c),
(202,431,o),
(202,672,o),
(202,672,c),
(202,672,o),
(284,672,o),
(288,672,cs),
(376,672,o),
(440,628,o),
(440,538,cs)
);
}
);
width = 647;
}
);
unicode = 82;
}
{
glyphname = S;
layers = (
{
hints = (
{
horizontal = 1;
place = (-10,57);
type = Stem;
},
{
horizontal = 1;
place = (683,57);
type = Stem;
},
{
place = (62,91);
type = Stem;
},
{
place = (425,91);
type = Stem;
}
);
layerId = "8E176FE4-6495-4606-9FA3-C7BE98DB310E";
shapes = (
{
closed = 1;
nodes = (
(509,312,o),
(460,385,o),
(348,429,cs),
(310,444,o),
(265,460,o),
(227,476,cs),
(171,501,o),
(144,527,o),
(144,586,cs),
(144,642,o),
(199,682,o),
(255,682,cs),
(333,682,o),
(379,623,o),
(403,549,cs),
(406,541,o),
(409,537,o),
(422,537,cs),
(424,537,o),
(451,537,o),
(453,537,c),
(453,544,o),
(453,696,o),
(453,717,c),
(450,717,o),
(429,717,o),
(427,717,cs),
(421,717,o),
(419,716,o),
(414,713,cs),
(409,710,o),
(404,702,o),
(397,702,cs),
(387,702,o),
(379,708,o),
(369,713,cs),
(331,734,o),
(297,740,o),
(263,740,cs),
(132,740,o),
(55,643,o),
(55,541,cs),
(55,471,o),
(95,397,o),
(196,358,cs),
(228,345,o),
(259,332,o),
(306,314,cs),
(371,290,o),
(416,255,o),
(416,185,cs),
(416,101,o),
(353,48,o),
(270,48,cs),
(202,48,o),
(131,83,o),
(88,180,cs),
(80,198,o),
(77,198,o),
(66,198,cs),
(64,198,o),
(40,198,o),
(33,198,c),
(33,181,o),
(33,0,o),
(33,0,c),
(33,0,o),
(55,0,o),
(64,0,cs),
(71,0,o),
(80,4,o),
(87,14,cs),
(93,22,o),
(97,26,o),
(105,26,cs),
(115,26,o),
(124,20,o),
(134,16,cs),
(154,8,o),
(206,-10,o),
(270,-10,cs),
(430,-10,o),
(509,111,o),
(509,224,cs)
);
}
);
width = 534;
}
);
unicode = 83;
}
{
glyphname = T;
layers = (
{
hints = (
{
horizontal = 1;
place = (0,20);
type = Stem;
},
{
horizontal = 1;
place = (673,57);
type = Stem;
},
{
place = (253,112);
type = Stem;
}
);
layerId = "8E176FE4-6495-4606-9FA3-C7BE98DB310E";
shapes = (
{
closed = 1;
nodes = (
(600,585,o),
(600,737,o),
(600,737,c),
(581,735,o),
(526,730,o),
(500,730,cs),
(104,730,ls),
(79,730,o),
(24,735,o),
(5,737,c),
(5,737,o),
(5,585,o),
(5,577,c),
(6,577,o),
(24,577,o),
(28,577,cs),
(46,577,o),
(58,587,o),
(62,599,cs),
(81,653,o),
(104,673,o),
(144,673,cs),
(149,673,o),
(242,673,o),
(246,673,c),
(246,673,o),
(246,119,o),
(246,91,cs),
(246,67,o),
(239,64,o),
(214,51,cs),
(194,41,o),
(189,39,o),
(189,28,cs),
(189,25,o),
(189,0,o),
(189,0,c),
(416,0,l),
(416,0,o),
(416,25,o),
(416,28,cs),
(416,39,o),
(411,40,o),
(390,51,cs),
(366,63,o),
(359,67,o),
(359,91,cs),
(359,119,o),
(359,673,o),
(359,673,c),
(364,673,o),
(456,673,o),
(460,673,cs),
(501,673,o),
(524,653,o),
(543,599,cs),
(547,587,o),
(558,577,o),
(577,577,cs),
(581,577,o),
(599,577,o),
(600,577,c)
);
}
);
width = 605;
}
);
unicode = 84;
}
{
glyphname = U;
layers = (
{
hints = (
{
horizontal = 1;
place = (-10,73);
type = Stem;
},
{
horizontal = 1;
place = (730,-20);
target = down;
type = TopGhost;
},
{
place = (92,112);
type = Stem;
},
{
place = (566,125);
type = Stem;
}
);
layerId = "8E176FE4-6495-4606-9FA3-C7BE98DB310E";
shapes = (
{
closed = 1;
nodes = (
(684,706,o),
(684,730,o),
(684,730,c),
(505,730,l),
(505,730,o),
(505,706,o),
(505,703,cs),
(505,693,o),
(510,692,o),
(530,677,cs),
(552,660,o),
(559,644,o),
(559,619,cs),
(559,591,o),
(559,296,o),
(559,269,cs),
(559,139,o),
(502,63,o),
(374,63,cs),
(262,63,o),
(197,141,o),
(197,262,cs),
(197,289,o),
(197,610,o),
(197,638,cs),
(197,660,o),
(202,667,o),
(226,679,cs),
(248,690,o),
(251,690,o),
(251,702,cs),
(251,705,o),
(251,730,o),
(251,730,c),
(30,730,l),
(30,730,o),
(30,705,o),
(30,702,cs),
(30,691,o),
(33,690,o),
(56,679,cs),
(81,667,o),
(85,661,o),
(85,638,cs),
(85,610,o),
(85,285,o),
(85,257,cs),
(85,106,o),
(170,-10,o),
(367,-10,cs),
(549,-10,o),
(630,127,o),
(630,264,cs),
(630,292,o),
(630,591,o),
(630,620,cs),
(630,644,o),
(636,659,o),
(659,676,cs),
(680,691,o),
(684,693,o),
(684,703,cs)
);
}
);
width = 714;
}
);
unicode = 85;
}
{
glyphname = V;
layers = (
{
hints = (
{
horizontal = 1;
place = (-8,20);
type = Stem;
},
{
horizontal = 1;
place = (730,-20);
target = down;
type = TopGhost;
},
{
place = (3,232);
type = Stem;
},
{
place = (507,190);
type = Stem;
}
);
layerId = "8E176FE4-6495-4606-9FA3-C7BE98DB310E";
shapes = (
{
closed = 1;
nodes = (
(690,710,o),
(690,730,o),
(690,730,c),
(500,730,l),
(500,730,o),
(500,714,o),
(500,713,c),
(500,701,o),
(507,695,o),
(526,686,cs),
(542,679,o),
(553,673,o),
(553,658,cs),
(553,643,o),
(541,612,o),
(536,598,cs),
(373,169,l),
(203,598,ls),
(195,618,o),
(186,648,o),
(186,656,cs),
(186,666,o),
(192,674,o),
(208,684,cs),
(228,696,o),
(232,697,o),
(232,708,cs),
(232,711,o),
(232,730,o),
(232,730,c),
(-4,730,l),
(-4,730,o),
(-4,705,o),
(-4,702,cs),
(-4,691,o),
(-1,689,o),
(21,679,cs),
(46,667,o),
(60,653,o),
(68,634,cs),
(325,2,ls),
(328,-6,o),
(333,-8,o),
(341,-8,cs),
(343,-8,o),
(356,-8,o),
(358,-8,cs),
(367,-8,o),
(370,-5,o),
(373,2,cs),
(619,618,ls),
(635,658,o),
(641,662,o),
(670,682,cs),
(685,693,o),
(690,696,o),
(690,707,cs)
);
}
);
width = 688;
}
);
unicode = 86;
}
{
glyphname = W;
layers = (
{
hints = (
{
horizontal = 1;
place = (-8,20);
type = Stem;
},
{
horizontal = 1;
place = (730,-20);
target = down;
type = TopGhost;
},
{
place = (7,232);
type = Stem;
},
{
place = (371,232);
type = Stem;
},
{
place = (806,190);
type = Stem;
}
);
layerId = "8E176FE4-6495-4606-9FA3-C7BE98DB310E";
shapes = (
{
closed = 1;
nodes = (
(989,710,o),
(989,730,o),
(989,730,c),
(798,730,l),
(798,730,o),
(798,714,o),
(798,713,c),
(798,701,o),
(805,695,o),
(824,686,cs),
(841,679,o),
(851,672,o),
(851,657,cs),
(851,650,o),
(843,617,o),
(837,598,cs),
(699,177,l),
(561,597,ls),
(554,619,o),
(546,647,o),
(546,654,cs),
(546,666,o),
(553,674,o),
(570,684,cs),
(591,696,o),
(595,697,o),
(595,708,cs),
(595,711,o),
(595,730,o),
(595,730,c),
(364,730,l),
(364,730,o),
(364,705,o),
(364,702,cs),
(364,691,o),
(367,689,o),
(388,679,cs),
(413,668,o),
(425,653,o),
(432,633,cs),
(469,533,l),
(346,179,l),
(202,595,ls),
(195,616,o),
(187,645,o),
(187,654,cs),
(187,665,o),
(193,672,o),
(209,682,cs),
(228,694,o),
(232,696,o),
(232,708,cs),
(232,711,o),
(232,730,o),
(232,730,c),
(0,730,l),
(0,730,o),
(0,705,o),
(0,702,cs),
(0,691,o),
(3,689,o),
(25,679,cs),
(50,667,o),
(64,651,o),
(70,633,cs),
(299,2,ls),
(302,-5,o),
(307,-8,o),
(315,-8,cs),
(317,-8,o),
(333,-8,o),
(336,-8,cs),
(343,-8,o),
(348,-5,o),
(350,2,cs),
(500,445,l),
(651,2,ls),
(653,-5,o),
(659,-8,o),
(668,-8,c),
(669,-8,o),
(686,-8,o),
(689,-8,cs),
(696,-8,o),
(701,-4,o),
(703,2,cs),
(918,618,ls),
(932,659,o),
(940,661,o),
(970,682,cs),
(985,692,o),
(989,696,o),
(989,707,cs)
);
}
);
width = 992;
}
);
unicode = 87;
}
{
glyphname = X;
layers = (
{
hints = (
{
horizontal = 1;
place = (0,20);
type = Stem;
},
{
horizontal = 1;
place = (730,-20);
target = down;
type = TopGhost;
},
{
place = (8,210);
type = Stem;
},
{
place = (422,200);
type = Stem;
}
);
layerId = "8E176FE4-6495-4606-9FA3-C7BE98DB310E";
shapes = (
{
closed = 1;
nodes = (
(642,0,l),
(642,0,o),
(642,24,o),
(642,27,cs),
(642,38,o),
(640,41,o),
(617,53,cs),
(588,68,o),
(581,76,o),
(563,103,cs),
(372,396,l),
(519,610,ls),
(552,657,o),
(566,673,o),
(594,683,cs),
(612,690,o),
(615,697,o),
(615,707,cs),
(615,710,o),
(615,730,o),
(615,730,c),
(415,730,l),
(415,730,o),
(415,709,o),
(415,708,c),
(415,697,o),
(420,691,o),
(431,686,cs),
(451,676,o),
(463,669,o),
(463,656,cs),
(463,649,o),
(457,631,o),
(448,617,cs),
(337,449,l),
(226,621,ls),
(218,634,o),
(211,649,o),
(211,659,cs),
(211,673,o),
(224,683,o),
(235,690,c),
(249,697,o),
(250,700,o),
(250,711,cs),
(250,714,o),
(250,730,o),
(250,730,c),
(13,730,l),
(13,730,o),
(13,706,o),
(13,703,cs),
(13,692,o),
(14,688,o),
(37,677,cs),
(68,662,o),
(75,655,o),
(93,627,cs),
(265,361,l),
(101,121,ls),
(68,72,o),
(56,60,o),
(22,47,cs),
(3,40,o),
(1,33,o),
(1,23,cs),
(1,20,o),
(1,0,o),
(1,0,c),
(207,0,l),
(207,0,o),
(207,20,o),
(207,21,c),
(207,32,o),
(201,39,o),
(189,44,cs),
(169,53,o),
(156,61,o),
(156,75,cs),
(156,82,o),
(167,105,o),
(173,114,cs),
(301,308,l),
(428,110,ls),
(436,97,o),
(443,81,o),
(443,71,cs),
(443,56,o),
(432,47,o),
(418,40,cs),
(406,33,o),
(405,30,o),
(405,19,cs),
(405,16,o),
(405,0,o),
(405,0,c)
);
}
);
width = 641;
}
);
unicode = 88;
}
{
glyphname = Y;
layers = (
{
hints = (
{
horizontal = 1;
place = (0,20);
type = Stem;
},
{
horizontal = 1;
place = (730,-20);
target = down;
type = TopGhost;
},
{
place = (1,239);
type = Stem;
},
{
place = (265,112);
type = Stem;
}
);
layerId = "8E176FE4-6495-4606-9FA3-C7BE98DB310E";
shapes = (
{
closed = 1;
nodes = (
(627,710,o),
(627,730,o),
(627,730,c),
(437,730,l),
(437,730,o),
(437,709,o),
(437,708,c),
(437,697,o),
(444,694,o),
(464,686,cs),
(479,680,o),
(488,675,o),
(488,663,cs),
(488,657,o),
(480,636,o),
(467,615,cs),
(340,402,l),
(208,617,ls),
(199,631,o),
(188,652,o),
(188,663,cs),
(188,672,o),
(196,678,o),
(210,686,cs),
(231,698,o),
(232,699,o),
(232,711,cs),
(232,714,o),
(232,730,o),
(232,730,c),
(-6,730,l),
(-6,730,o),
(-6,705,o),
(-6,702,cs),
(-6,691,o),
(-3,689,o),
(19,679,cs),
(44,667,o),
(55,653,o),
(67,635,cs),
(258,331,l),
(258,331,o),
(258,119,o),
(258,91,cs),
(258,67,o),
(253,63,o),
(228,51,cs),
(206,40,o),
(202,39,o),
(202,28,cs),
(202,25,o),
(202,0,o),
(202,0,c),
(426,0,l),
(426,0,o),
(426,25,o),
(426,28,cs),
(426,39,o),
(421,40,o),
(400,51,cs),
(376,63,o),
(371,69,o),
(371,91,cs),
(371,119,o),
(371,333,o),
(371,333,c),
(546,620,ls),
(572,662,o),
(579,665,o),
(607,683,cs),
(622,693,o),
(627,696,o),
(627,707,cs)
);
}
);
width = 622;
}
);
unicode = 89;
}
{
glyphname = Z;
layers = (
{
hints = (
{
horizontal = 1;
place = (0,57);
type = Stem;
},
{
horizontal = 1;
place = (673,57);
type = Stem;
},
{
place = (23,137);
type = Stem;
}
);
layerId = "8E176FE4-6495-4606-9FA3-C7BE98DB310E";
shapes = (
{
closed = 1;
nodes = (
(567,-6,o),
(567,161,o),
(567,172,c),
(565,172,o),
(541,172,o),
(539,172,cs),
(525,172,o),
(521,166,o),
(515,150,cs),
(488,83,o),
(465,58,o),
(398,58,cs),
(390,58,o),
(157,58,o),
(157,58,c),
(545,667,ls),
(555,682,o),
(561,689,o),
(561,709,cs),
(561,712,o),
(561,730,o),
(561,730,c),
(561,730,o),
(173,730,o),
(157,730,cs),
(125,730,o),
(72,735,o),
(54,737,c),
(54,576,l),
(59,576,o),
(73,576,o),
(77,576,cs),
(97,576,o),
(107,586,o),
(111,598,cs),
(130,652,o),
(155,672,o),
(195,672,cs),
(200,672,o),
(421,672,o),
(421,672,c),
(33,64,ls),
(22,47,o),
(16,38,o),
(16,23,cs),
(16,14,o),
(16,0,o),
(16,0,c),
(16,0,o),
(448,0,o),
(464,0,cs),
(492,0,o),
(551,-5,o),
(567,-6,c)
);
}
);
width = 589;
}
);
unicode = 90;
}
{
glyphname = bracketleft;
layers = (
{
hints = (
{
horizontal = 1;
place = (-190,50);
type = Stem;
},
{
horizontal = 1;
place = (680,50);
type = Stem;
},
{
place = (71,101);
type = Stem;
}
);
layerId = "8E176FE4-6495-4606-9FA3-C7BE98DB310E";
shapes = (
{
closed = 1;
nodes = (
(324,-141,l),
(166,-141,l),
(166,681,l),
(324,681,l),
(324,730,l),
(64,730,l),
(64,-190,l),
(324,-190,l)
);
}
);
width = 346;
}
);
unicode = 91;
}
{
glyphname = backslash;
layers = (
{
hints = (
{
horizontal = 1;
place = (730,-20);
target = down;
type = TopGhost;
}
);
layerId = "8E176FE4-6495-4606-9FA3-C7BE98DB310E";
shapes = (
{
closed = 1;
nodes = (
(123,730,l),
(48,730,l),
(405,-190,l),
(479,-190,l)
);
}
);
width = 472;
}
);
unicode = 92;
}
{
glyphname = bracketright;
layers = (
{
hints = (
{
horizontal = 1;
place = (-190,50);
type = Stem;
},
{
horizontal = 1;
place = (680,50);
type = Stem;
},
{
place = (188,101);
type = Stem;
}
);
layerId = "8E176FE4-6495-4606-9FA3-C7BE98DB310E";
shapes = (
{
closed = 1;
nodes = (
(282,730,l),
(22,730,l),
(22,681,l),
(180,681,l),
(180,-141,l),
(22,-141,l),
(22,-190,l),
(282,-190,l)
);
}
);
width = 346;
}
);
unicode = 93;
}
{
glyphname = asciicircum;
layers = (
{
hints = (
{
horizontal = 1;
place = (730,-20);
target = down;
type = TopGhost;
}
);
layerId = "8E176FE4-6495-4606-9FA3-C7BE98DB310E";
shapes = (
{
closed = 1;
nodes = (
(407,730,l),
(335,730,l),
(135,314,l),
(217,314,l),
(371,643,l),
(525,314,l),
(607,314,l)
);
}
);
width = 742;
}
);
unicode = 94;
}
{
glyphname = underscore;
layers = (
{
hints = (
{
horizontal = 1;
place = (-104,44);
type = Stem;
}
);
layerId = "8E176FE4-6495-4606-9FA3-C7BE98DB310E";
shapes = (
{
closed = 1;
nodes = (
(494,-58,l),
(-2,-58,l),
(-2,-104,l),
(494,-104,l)
);
}
);
width = 492;
}
);
unicode = 95;
}
{
glyphname = a;
layers = (
{
hints = (
{
horizontal = 1;
place = (-9,57);
type = Stem;
},
{
horizontal = 1;
place = (227,44);
type = Stem;
},
{
horizontal = 1;
place = (387,50);
type = Stem;
},
{
place = (64,112);
type = Stem;
},
{
place = (294,101);
type = Stem;
}
);
layerId = "8E176FE4-6495-4606-9FA3-C7BE98DB310E";
shapes = (
{
closed = 1;
nodes = (
(449,75,l),
(442,69,o),
(429,60,o),
(421,60,cs),
(399,60,o),
(388,73,o),
(388,96,cs),
(388,107,o),
(388,258,o),
(388,264,cs),
(388,366,o),
(338,437,o),
(205,437,cs),
(108,437,o),
(57,393,o),
(57,353,cs),
(57,321,o),
(75,303,o),
(110,303,cs),
(153,303,o),
(166,338,o),
(168,383,c),
(174,385,o),
(189,387,o),
(205,387,cs),
(258,387,o),
(288,348,o),
(288,271,c),
(111,271,o),
(22,207,o),
(22,118,cs),
(22,33,o),
(93,-9,o),
(168,-9,cs),
(218,-9,o),
(266,13,o),
(300,52,c),
(314,15,o),
(347,-6,o),
(383,-6,cs),
(416,-6,o),
(452,17,o),
(470,48,c)
);
},
{
closed = 1;
nodes = (
(287,82,o),
(242,49,o),
(198,49,cs),
(158,49,o),
(125,74,o),
(125,126,cs),
(125,186,o),
(185,225,o),
(287,226,c),
(287,213,o),
(287,132,o),
(287,124,cs)
);
}
);
width = 458;
}
);
unicode = 97;
}
{
glyphname = b;
layers = (
{
hints = (
{
horizontal = 1;
place = (-9,57);
type = Stem;
},
{
horizontal = 1;
place = (375,57);
type = Stem;
},
{
horizontal = 1;
place = (730,-20);
target = down;
type = TopGhost;
},
{
place = (72,101);
type = Stem;
},
{
place = (390,101);
type = Stem;
}
);
layerId = "8E176FE4-6495-4606-9FA3-C7BE98DB310E";
shapes = (
{
closed = 1;
nodes = (
(484,364,o),
(384,432,o),
(287,432,cs),
(225,432,o),
(187,403,o),
(166,385,c),
(166,390,o),
(166,704,o),
(166,730,c),
(21,721,l),
(21,721,o),
(21,699,o),
(21,696,cs),
(21,687,o),
(26,686,o),
(42,678,cs),
(64,666,o),
(66,659,o),
(66,634,cs),
(66,0,ls),
(66,-7,o),
(72,-9,o),
(79,-9,cs),
(85,-9,o),
(89,-6,o),
(93,-3,cs),
(107,7,o),
(123,22,o),
(129,27,cs),
(138,34,o),
(145,32,o),
(154,26,cs),
(184,8,o),
(222,-9,o),
(272,-9,cs),
(405,-9,o),
(484,102,o),
(484,218,cs)
);
},
{
closed = 1;
nodes = (
(379,116,o),
(341,48,o),
(256,48,cs),
(212,48,o),
(181,72,o),
(166,88,c),
(166,110,o),
(166,302,o),
(166,325,c),
(191,353,o),
(220,372,o),
(267,372,cs),
(324,372,o),
(379,335,o),
(379,217,cs)
);
}
);
width = 506;
}
);
unicode = 98;
}
{
glyphname = c;
layers = (
{
hints = (
{
horizontal = 1;
place = (-9,57);
type = Stem;
},
{
horizontal = 1;
place = (382,50);
type = Stem;
},
{
place = (29,101);
type = Stem;
},
{
place = (276,112);
type = Stem;
}
);
layerId = "8E176FE4-6495-4606-9FA3-C7BE98DB310E";
shapes = (
{
closed = 1;
nodes = (
(374,123,l),
(341,88,o),
(305,53,o),
(246,53,cs),
(162,53,o),
(126,141,o),
(126,224,cs),
(126,311,o),
(159,381,o),
(228,381,cs),
(253,381,o),
(274,374,o),
(280,369,c),
(275,353,o),
(271,334,o),
(272,322,cs),
(274,292,o),
(300,278,o),
(327,278,cs),
(353,278,o),
(381,294,o),
(381,338,cs),
(381,381,o),
(334,432,o),
(234,432,cs),
(109,432,o),
(22,327,o),
(22,208,cs),
(22,72,o),
(117,-9,o),
(230,-9,cs),
(325,-9,o),
(381,48,o),
(405,91,c)
);
}
);
width = 399;
}
);
unicode = 99;
}
{
glyphname = d;
layers = (
{
hints = (
{
horizontal = 1;
place = (-8,65);
type = Stem;
},
{
horizontal = 1;
place = (375,57);
type = Stem;
},
{
horizontal = 1;
place = (730,-20);
target = down;
type = TopGhost;
},
{
place = (29,101);
type = Stem;
},
{
place = (300,145);
type = Stem;
}
);
layerId = "8E176FE4-6495-4606-9FA3-C7BE98DB310E";
shapes = (
{
closed = 1;
nodes = (
(482,5,l),
(482,5,o),
(482,27,o),
(482,30,cs),
(482,38,o),
(478,38,o),
(461,46,cs),
(439,57,o),
(438,60,o),
(438,86,cs),
(438,90,o),
(438,730,o),
(438,730,c),
(289,721,l),
(289,721,o),
(289,699,o),
(289,696,cs),
(289,687,o),
(297,687,o),
(313,678,cs),
(334,666,o),
(338,659,o),
(338,634,cs),
(338,632,o),
(338,420,o),
(338,385,c),
(314,407,o),
(279,432,o),
(218,432,cs),
(115,432,o),
(22,349,o),
(22,211,cs),
(22,88,o),
(101,-8,o),
(218,-8,cs),
(274,-8,o),
(314,17,o),
(340,45,c),
(340,37,o),
(340,-1,o),
(340,-1,c)
);
},
{
closed = 1;
nodes = (
(312,72,o),
(275,55,o),
(241,55,cs),
(181,55,o),
(127,102,o),
(127,215,cs),
(127,295,o),
(155,372,o),
(241,372,cs),
(285,372,o),
(315,352,o),
(338,326,c),
(338,304,o),
(338,115,o),
(338,97,c)
);
}
);
width = 513;
}
);
unicode = 100;
}
{
glyphname = e;
layers = (
{
hints = (
{
horizontal = 1;
place = (-9,57);
type = Stem;
},
{
horizontal = 1;
place = (220,57);
type = Stem;
},
{
horizontal = 1;
place = (380,57);
type = Stem;
},
{
place = (29,101);
type = Stem;
},
{
place = (328,101);
type = Stem;
}
);
layerId = "8E176FE4-6495-4606-9FA3-C7BE98DB310E";
shapes = (
{
closed = 1;
nodes = (
(422,327,o),
(370,437,o),
(233,437,cs),
(97,437,o),
(22,321,o),
(22,208,cs),
(22,97,o),
(97,-9,o),
(236,-9,cs),
(331,-9,o),
(402,55,o),
(421,94,c),
(389,128,l),
(356,88,o),
(309,51,o),
(251,51,cs),
(163,51,o),
(123,129,o),
(122,224,c),
(150,224,o),
(422,224,o),
(422,224,c)
);
},
{
closed = 1;
nodes = (
(308,277,o),
(140,277,o),
(126,277,c),
(136,340,o),
(176,384,o),
(227,384,cs),
(293,384,o),
(315,335,o),
(319,277,c)
);
}
);
width = 440;
}
);
unicode = 101;
}
{
glyphname = f;
layers = (
{
hints = (
{
horizontal = 1;
place = (0,20);
type = Stem;
},
{
horizontal = 1;
place = (363,57);
type = Stem;
},
{
horizontal = 1;
place = (612,118);
type = Stem;
},
{
place = (88,101);
type = Stem;
},
{
place = (237,112);
type = Stem;
}
);
layerId = "8E176FE4-6495-4606-9FA3-C7BE98DB310E";
shapes = (
{
closed = 1;
nodes = (
(342,697,o),
(321,730,o),
(263,730,cs),
(146,730,o),
(81,592,o),
(81,450,cs),
(81,432,o),
(78,423,o),
(65,417,cs),
(41,405,o),
(36,403,o),
(36,395,cs),
(36,390,o),
(36,369,o),
(36,367,c),
(38,367,o),
(75,367,o),
(81,367,c),
(81,339,o),
(81,88,o),
(81,81,cs),
(81,54,o),
(80,54,o),
(58,42,cs),
(41,33,o),
(36,34,o),
(36,25,cs),
(36,22,o),
(36,0,o),
(36,0,c),
(228,0,l),
(228,0,o),
(228,22,o),
(228,25,cs),
(228,33,o),
(220,35,o),
(206,42,cs),
(183,54,o),
(181,54,o),
(181,81,cs),
(181,367,l),
(198,367,o),
(294,367,o),
(297,367,c),
(297,369,o),
(297,416,o),
(297,420,c),
(295,420,o),
(197,420,o),
(180,420,c),
(180,436,o),
(180,542,o),
(180,554,cs),
(180,654,o),
(216,670,o),
(232,676,c),
(233,628,o),
(264,612,o),
(288,612,cs),
(323,612,o),
(342,636,o),
(342,669,cs)
);
}
);
width = 293;
}
);
unicode = 102;
}
{
glyphname = g;
layers = (
{
hints = (
{
horizontal = 1;
place = (-198,50);
type = Stem;
},
{
horizontal = 1;
place = (-17,83);
type = Stem;
},
{
horizontal = 1;
place = (120,50);
type = Stem;
},
{
horizontal = 1;
place = (381,57);
type = Stem;
},
{
place = (42,101);
type = Stem;
},
{
place = (307,91);
type = Stem;
}
);
layerId = "8E176FE4-6495-4606-9FA3-C7BE98DB310E";
shapes = (
{
closed = 1;
nodes = (
(466,425,o),
(445,438,o),
(418,438,c),
(384,439,o),
(354,418,o),
(338,395,c),
(308,421,o),
(267,437,o),
(214,437,cs),
(111,437,o),
(31,372,o),
(31,279,cs),
(31,227,o),
(58,183,o),
(102,153,c),
(94,138,o),
(29,22,o),
(18,2,cs),
(13,-6,o),
(10,-10,o),
(11,-17,cs),
(12,-25,o),
(19,-26,o),
(30,-26,c),
(40,-25,o),
(60,-22,o),
(86,-20,cs),
(112,-19,o),
(158,-17,o),
(194,-17,cs),
(283,-17,o),
(333,-32,o),
(333,-71,cs),
(333,-127,o),
(254,-147,o),
(201,-147,cs),
(176,-147,o),
(145,-138,o),
(139,-134,c),
(139,-97,o),
(125,-69,o),
(90,-69,cs),
(60,-69,o),
(35,-88,o),
(35,-120,cs),
(35,-167,o),
(92,-198,o),
(202,-198,cs),
(321,-198,o),
(420,-143,o),
(420,-55,cs),
(420,19,o),
(367,68,o),
(210,68,cs),
(159,68,o),
(133,65,o),
(108,62,c),
(143,132,l),
(161,126,o),
(191,121,o),
(212,121,cs),
(327,121,o),
(391,196,o),
(391,279,cs),
(391,306,o),
(385,333,o),
(365,363,c),
(367,369,o),
(375,375,o),
(379,375,cs),
(385,375,o),
(390,372,o),
(398,367,cs),
(408,361,o),
(413,357,o),
(430,357,cs),
(447,357,o),
(466,372,o),
(466,395,cs)
);
},
{
closed = 1;
nodes = (
(297,222,o),
(266,170,o),
(217,170,cs),
(163,170,o),
(130,213,o),
(130,281,cs),
(130,334,o),
(154,384,o),
(213,384,cs),
(272,384,o),
(297,336,o),
(297,281,cs)
);
}
);
width = 453;
}
);
unicode = 103;
}
{
glyphname = h;
layers = (
{
hints = (
{
horizontal = 1;
place = (0,20);
type = Stem;
},
{
horizontal = 1;
place = (367,65);
type = Stem;
},
{
horizontal = 1;
place = (730,-20);
target = down;
type = TopGhost;
},
{
place = (82,101);
type = Stem;
},
{
place = (363,101);
type = Stem;
}
);
layerId = "8E176FE4-6495-4606-9FA3-C7BE98DB310E";
shapes = (
{
closed = 1;
nodes = (
(501,0,l),
(501,0,o),
(501,22,o),
(501,25,cs),
(501,33,o),
(496,33,o),
(480,42,cs),
(457,54,o),
(457,54,o),
(457,81,cs),
(457,84,o),
(457,281,o),
(457,288,cs),
(457,376,o),
(404,432,o),
(312,432,cs),
(249,432,o),
(206,406,o),
(175,375,c),
(175,380,o),
(175,724,o),
(175,730,c),
(29,721,l),
(29,721,o),
(29,699,o),
(29,696,cs),
(29,687,o),
(34,686,o),
(51,677,cs),
(72,665,o),
(75,659,o),
(75,634,cs),
(75,627,o),
(75,92,o),
(75,81,cs),
(75,54,o),
(74,54,o),
(52,42,cs),
(35,33,o),
(30,34,o),
(30,25,cs),
(30,22,o),
(30,0,o),
(30,0,c),
(219,0,l),
(219,0,o),
(219,22,o),
(219,25,cs),
(219,33,o),
(214,33,o),
(198,42,cs),
(175,54,o),
(175,54,o),
(175,81,cs),
(175,84,o),
(175,316,o),
(175,316,c),
(200,350,o),
(236,368,o),
(274,368,cs),
(319,368,o),
(356,342,o),
(356,285,cs),
(356,279,o),
(356,92,o),
(356,81,cs),
(356,54,o),
(356,54,o),
(333,42,cs),
(316,33,o),
(312,34,o),
(312,25,cs),
(312,22,o),
(312,0,o),
(312,0,c)
);
}
);
width = 527;
}
);
unicode = 104;
}
{
glyphname = i;
layers = (
{
hints = (
{
horizontal = 1;
place = (0,20);
type = Stem;
},
{
horizontal = 1;
place = (563,124);
type = Stem;
},
{
place = (89,101);
type = Stem;
}
);
layerId = "8E176FE4-6495-4606-9FA3-C7BE98DB310E";
shapes = (
{
closed = 1;
nodes = (
(188,658,o),
(160,687,o),
(124,687,cs),
(89,687,o),
(61,658,o),
(61,623,cs),
(61,588,o),
(89,559,o),
(124,559,cs),
(160,559,o),
(188,588,o),
(188,623,cs)
);
},
{
closed = 1;
nodes = (
(225,0,l),
(225,0,o),
(225,22,o),
(225,25,cs),
(225,33,o),
(221,33,o),
(205,42,cs),
(182,54,o),
(182,54,o),
(182,81,c),
(182,81,o),
(182,423,o),
(182,429,c),
(36,420,l),
(36,420,o),
(36,398,o),
(36,395,cs),
(36,388,o),
(41,386,o),
(58,378,cs),
(80,368,o),
(82,361,o),
(82,335,cs),
(82,328,o),
(82,92,o),
(82,81,cs),
(82,54,o),
(81,53,o),
(60,42,cs),
(42,32,o),
(38,34,o),
(38,25,cs),
(38,22,o),
(38,0,o),
(38,0,c)
);
}
);
width = 256;
}
);
unicode = 105;
}
{
glyphname = j;
layers = (
{
hints = (
{
horizontal = 1;
place = (-197,112);
type = Stem;
},
{
horizontal = 1;
place = (563,124);
type = Stem;
},
{
place = (-59,101);
type = Stem;
},
{
place = (90,101);
type = Stem;
}
);
layerId = "8E176FE4-6495-4606-9FA3-C7BE98DB310E";
shapes = (
{
closed = 1;
nodes = (
(187,658,o),
(160,687,o),
(124,687,cs),
(89,687,o),
(61,658,o),
(61,623,cs),
(61,588,o),
(89,559,o),
(124,559,cs),
(160,559,o),
(187,588,o),
(187,623,cs)
);
},
{
closed = 1;
nodes = (
(184,46,o),
(184,423,o),
(184,429,c),
(35,420,l),
(35,420,o),
(35,398,o),
(35,395,cs),
(35,388,o),
(40,386,o),
(58,378,cs),
(80,368,o),
(83,362,o),
(83,335,cs),
(83,329,o),
(83,-36,o),
(83,-47,cs),
(83,-134,o),
(57,-146,o),
(39,-150,c),
(39,-106,o),
(14,-84,o),
(-13,-84,cs),
(-47,-84,o),
(-66,-108,o),
(-66,-137,cs),
(-66,-167,o),
(-40,-197,o),
(15,-197,cs),
(124,-197,o),
(184,-99,o),
(184,39,cs)
);
}
);
width = 247;
}
);
unicode = 106;
}
{
glyphname = k;
layers = (
{
hints = (
{
horizontal = 1;
place = (0,20);
type = Stem;
},
{
horizontal = 1;
place = (730,-20);
target = down;
type = TopGhost;
},
{
place = (82,101);
type = Stem;
},
{
place = (295,210);
type = Stem;
}
);
layerId = "8E176FE4-6495-4606-9FA3-C7BE98DB310E";
shapes = (
{
closed = 1;
nodes = (
(498,0,l),
(498,0,o),
(498,25,o),
(498,28,cs),
(498,34,o),
(492,37,o),
(474,45,cs),
(454,54,o),
(443,62,o),
(419,96,cs),
(412,107,o),
(313,244,o),
(297,267,c),
(377,336,o),
(400,356,o),
(457,378,cs),
(471,383,o),
(483,388,o),
(483,396,cs),
(483,399,o),
(483,420,o),
(483,420,c),
(273,420,l),
(273,420,o),
(273,401,o),
(273,398,cs),
(273,391,o),
(276,388,o),
(293,381,cs),
(311,373,o),
(319,370,o),
(319,361,cs),
(319,356,o),
(305,339,o),
(294,329,cs),
(289,325,o),
(197,239,o),
(175,221,c),
(175,276,o),
(175,730,o),
(175,730,c),
(30,721,l),
(30,721,o),
(30,699,o),
(30,696,cs),
(30,687,o),
(35,687,o),
(52,678,cs),
(73,667,o),
(75,660,o),
(75,634,cs),
(75,628,o),
(75,92,o),
(75,81,cs),
(75,54,o),
(75,54,o),
(53,42,cs),
(36,33,o),
(31,34,o),
(31,25,cs),
(31,22,o),
(31,0,o),
(31,0,c),
(218,0,l),
(218,0,o),
(218,22,o),
(218,25,cs),
(218,33,o),
(213,33,o),
(197,42,cs),
(175,54,o),
(174,54,o),
(174,81,c),
(174,82,o),
(174,156,o),
(174,164,c),
(224,208,l),
(230,200,o),
(300,99,o),
(307,89,cs),
(313,80,o),
(323,63,o),
(323,57,cs),
(323,51,o),
(319,45,o),
(308,40,cs),
(292,32,o),
(287,31,o),
(287,24,cs),
(287,21,o),
(287,0,o),
(287,0,c)
);
}
);
width = 494;
}
);
unicode = 107;
}
{
glyphname = l;
layers = (
{
hints = (
{
horizontal = 1;
place = (0,20);
type = Stem;
},
{
horizontal = 1;
place = (730,-20);
target = down;
type = TopGhost;
},
{
place = (81,101);
type = Stem;
}
);
layerId = "8E176FE4-6495-4606-9FA3-C7BE98DB310E";
shapes = (
{
closed = 1;
nodes = (
(219,0,l),
(219,0,o),
(219,22,o),
(219,25,cs),
(219,33,o),
(215,33,o),
(199,42,cs),
(176,54,o),
(176,54,o),
(176,81,cs),
(176,85,o),
(176,730,o),
(176,730,c),
(31,721,l),
(31,721,o),
(31,699,o),
(31,696,cs),
(31,687,o),
(36,687,o),
(53,678,cs),
(74,667,o),
(76,658,o),
(76,637,cs),
(76,630,o),
(76,92,o),
(76,81,cs),
(76,54,o),
(75,53,o),
(54,42,cs),
(36,32,o),
(32,34,o),
(32,25,cs),
(32,22,o),
(32,0,o),
(32,0,c)
);
}
);
width = 251;
}
);
unicode = 108;
}
{
glyphname = m;
layers = (
{
hints = (
{
horizontal = 1;
place = (0,20);
type = Stem;
},
{
horizontal = 1;
place = (367,65);
type = Stem;
},
{
place = (86,101);
type = Stem;
},
{
place = (356,101);
type = Stem;
},
{
place = (625,101);
type = Stem;
}
);
layerId = "8E176FE4-6495-4606-9FA3-C7BE98DB310E";
shapes = (
{
closed = 1;
nodes = (
(765,0,l),
(765,0,o),
(765,22,o),
(765,25,cs),
(765,33,o),
(761,33,o),
(744,42,cs),
(722,54,o),
(721,54,o),
(721,81,cs),
(721,84,o),
(721,281,o),
(721,288,cs),
(721,376,o),
(665,432,o),
(573,432,cs),
(514,432,o),
(474,407,o),
(432,366,c),
(409,408,o),
(369,432,o),
(310,432,cs),
(243,432,o),
(207,401,o),
(180,372,c),
(180,378,o),
(180,423,o),
(180,429,c),
(35,420,l),
(35,420,o),
(35,398,o),
(35,395,cs),
(35,387,o),
(40,385,o),
(57,378,cs),
(79,368,o),
(81,361,o),
(81,335,cs),
(81,328,o),
(81,92,o),
(81,81,cs),
(81,54,o),
(80,53,o),
(59,42,cs),
(41,32,o),
(37,34,o),
(37,25,cs),
(37,22,o),
(37,0,o),
(37,0,c),
(225,0,l),
(225,0,o),
(225,22,o),
(225,25,cs),
(225,33,o),
(221,33,o),
(204,42,cs),
(182,54,o),
(181,54,o),
(181,81,cs),
(181,84,o),
(181,321,o),
(181,321,c),
(199,349,o),
(241,368,o),
(274,368,cs),
(324,368,o),
(351,337,o),
(351,283,cs),
(351,277,o),
(351,92,o),
(351,81,cs),
(351,54,o),
(351,54,o),
(328,42,cs),
(311,33,o),
(307,34,o),
(307,25,cs),
(307,22,o),
(307,0,o),
(307,0,c),
(494,0,l),
(494,0,o),
(494,22,o),
(494,25,cs),
(494,33,o),
(491,33,o),
(474,42,cs),
(452,54,o),
(451,54,o),
(451,81,cs),
(451,84,o),
(451,323,o),
(451,323,c),
(468,352,o),
(509,368,o),
(540,368,cs),
(591,368,o),
(620,337,o),
(620,285,cs),
(620,279,o),
(620,92,o),
(620,81,cs),
(620,54,o),
(619,53,o),
(598,42,cs),
(582,33,o),
(578,34,o),
(578,25,cs),
(578,22,o),
(578,0,o),
(578,0,c)
);
}
);
width = 791;
}
);
unicode = 109;
}
{
glyphname = n;
layers = (
{
hints = (
{
horizontal = 1;
place = (0,20);
type = Stem;
},
{
horizontal = 1;
place = (367,65);
type = Stem;
},
{
place = (86,101);
type = Stem;
},
{
place = (368,101);
type = Stem;
}
);
layerId = "8E176FE4-6495-4606-9FA3-C7BE98DB310E";
shapes = (
{
closed = 1;
nodes = (
(508,0,l),
(508,0,o),
(508,22,o),
(508,25,cs),
(508,33,o),
(503,33,o),
(487,42,cs),
(465,54,o),
(464,54,o),
(464,81,cs),
(464,84,o),
(464,281,o),
(464,288,cs),
(464,376,o),
(411,432,o),
(319,432,cs),
(256,432,o),
(205,404,o),
(175,373,c),
(175,378,o),
(175,423,o),
(175,429,c),
(36,420,l),
(36,420,o),
(36,398,o),
(36,395,cs),
(36,387,o),
(40,385,o),
(57,378,cs),
(79,368,o),
(81,361,o),
(81,335,cs),
(81,328,o),
(81,92,o),
(81,81,cs),
(81,54,o),
(81,54,o),
(59,42,cs),
(41,33,o),
(37,34,o),
(37,25,cs),
(37,22,o),
(37,0,o),
(37,0,c),
(225,0,l),
(225,0,o),
(225,22,o),
(225,25,cs),
(225,33,o),
(221,33,o),
(204,42,cs),
(182,54,o),
(181,54,o),
(181,81,cs),
(181,84,o),
(181,311,o),
(181,318,c),
(201,347,o),
(243,367,o),
(280,367,cs),
(327,367,o),
(363,342,o),
(363,285,cs),
(363,279,o),
(363,92,o),
(363,81,cs),
(363,54,o),
(363,54,o),
(340,42,cs),
(324,33,o),
(318,34,o),
(318,25,cs),
(318,22,o),
(318,0,o),
(318,0,c)
);
}
);
width = 534;
}
);
unicode = 110;
}
{
glyphname = o;
layers = (
{
hints = (
{
horizontal = 1;
place = (-9,57);
type = Stem;
},
{
horizontal = 1;
place = (380,57);
type = Stem;
},
{
place = (27,112);
type = Stem;
},
{
place = (358,101);
type = Stem;
}
);
layerId = "8E176FE4-6495-4606-9FA3-C7BE98DB310E";
shapes = (
{
closed = 1;
nodes = (
(454,342,o),
(365,437,o),
(238,437,cs),
(111,437,o),
(22,343,o),
(22,214,cs),
(22,84,o),
(111,-9,o),
(238,-9,cs),
(365,-9,o),
(454,85,o),
(454,213,cs)
);
},
{
closed = 1;
nodes = (
(348,107,o),
(310,45,o),
(238,45,cs),
(167,45,o),
(129,108,o),
(129,214,cs),
(129,320,o),
(167,382,o),
(238,382,cs),
(310,382,o),
(348,319,o),
(348,213,cs)
);
}
);
width = 476;
}
);
unicode = 111;
}
{
glyphname = p;
layers = (
{
hints = (
{
horizontal = 1;
place = (-9,57);
type = Stem;
},
{
horizontal = 1;
place = (367,65);
type = Stem;
},
{
place = (84,101);
type = Stem;
},
{
place = (393,101);
type = Stem;
}
);
layerId = "8E176FE4-6495-4606-9FA3-C7BE98DB310E";
shapes = (
{
closed = 1;
nodes = (
(487,349,o),
(400,432,o),
(298,432,cs),
(239,432,o),
(193,400,o),
(171,374,c),
(171,383,o),
(171,429,o),
(171,429,c),
(31,420,l),
(31,420,o),
(31,398,o),
(31,395,cs),
(31,387,o),
(36,385,o),
(53,378,cs),
(75,368,o),
(77,361,o),
(77,335,cs),
(77,328,o),
(77,-97,o),
(77,-108,cs),
(77,-135,o),
(76,-135,o),
(54,-147,cs),
(37,-156,o),
(33,-156,o),
(33,-164,cs),
(33,-167,o),
(33,-189,o),
(33,-189,c),
(222,-189,l),
(222,-189,o),
(222,-167,o),
(222,-164,cs),
(222,-157,o),
(216,-156,o),
(200,-147,cs),
(178,-135,o),
(177,-135,o),
(177,-108,c),
(177,-107,o),
(177,15,o),
(177,33,c),
(201,15,o),
(237,-9,o),
(292,-9,cs),
(408,-9,o),
(487,102,o),
(487,218,cs)
);
},
{
closed = 1;
nodes = (
(382,100,o),
(334,50,o),
(272,50,cs),
(230,50,o),
(199,70,o),
(177,92,c),
(177,114,o),
(177,295,o),
(177,318,c),
(193,341,o),
(231,368,o),
(275,368,cs),
(333,368,o),
(382,316,o),
(382,222,cs)
);
}
);
width = 509;
}
);
unicode = 112;
}
{
glyphname = q;
layers = (
{
hints = (
{
horizontal = 1;
place = (-2,57);
type = Stem;
},
{
horizontal = 1;
place = (380,57);
type = Stem;
},
{
place = (29,101);
type = Stem;
},
{
place = (338,101);
type = Stem;
}
);
layerId = "8E176FE4-6495-4606-9FA3-C7BE98DB310E";
shapes = (
{
closed = 1;
nodes = (
(475,-189,l),
(475,-189,o),
(475,-167,o),
(475,-164,cs),
(475,-157,o),
(470,-156,o),
(453,-147,cs),
(431,-135,o),
(431,-135,o),
(431,-108,cs),
(431,427,ls),
(431,433,o),
(426,438,o),
(419,438,cs),
(410,438,o),
(401,428,o),
(395,421,cs),
(392,418,o),
(375,397,o),
(363,397,cs),
(356,397,o),
(352,399,o),
(345,403,cs),
(312,423,o),
(281,437,o),
(232,437,cs),
(125,437,o),
(22,347,o),
(22,215,cs),
(22,96,o),
(100,-2,o),
(218,-2,cs),
(273,-2,o),
(308,24,o),
(331,44,c),
(331,25,o),
(331,-107,o),
(331,-108,c),
(331,-135,o),
(330,-135,o),
(307,-147,cs),
(291,-156,o),
(286,-156,o),
(286,-164,cs),
(286,-167,o),
(286,-189,o),
(286,-189,c)
);
},
{
closed = 1;
nodes = (
(309,71,o),
(275,56,o),
(240,56,cs),
(184,56,o),
(127,98,o),
(127,218,cs),
(127,335,o),
(187,382,o),
(249,382,cs),
(285,382,o),
(317,365,o),
(331,349,c),
(331,326,o),
(331,116,o),
(331,94,c)
);
}
);
width = 496;
}
);
unicode = 113;
}
{
glyphname = r;
layers = (
{
hints = (
{
horizontal = 1;
place = (0,20);
type = Stem;
},
{
horizontal = 1;
place = (349,83);
type = Stem;
},
{
place = (88,101);
type = Stem;
}
);
layerId = "8E176FE4-6495-4606-9FA3-C7BE98DB310E";
shapes = (
{
closed = 1;
nodes = (
(363,402,o),
(342,432,o),
(298,432,cs),
(256,432,o),
(214,399,o),
(174,336,c),
(174,342,o),
(174,423,o),
(174,429,c),
(35,420,l),
(35,420,o),
(35,398,o),
(35,395,cs),
(35,387,o),
(39,386,o),
(57,378,cs),
(79,368,o),
(81,361,o),
(81,335,cs),
(81,328,o),
(81,92,o),
(81,81,cs),
(81,54,o),
(80,53,o),
(59,42,cs),
(41,32,o),
(37,34,o),
(37,25,cs),
(37,22,o),
(37,0,o),
(37,0,c),
(228,0,l),
(228,0,o),
(228,22,o),
(228,25,cs),
(228,33,o),
(221,35,o),
(206,42,cs),
(183,54,o),
(181,54,o),
(181,81,cs),
(181,84,o),
(181,213,o),
(181,226,cs),
(181,291,o),
(223,350,o),
(256,352,c),
(264,330,o),
(283,311,o),
(307,311,cs),
(346,311,o),
(363,341,o),
(363,373,cs)
);
}
);
width = 354;
}
);
unicode = 114;
}
{
glyphname = s;
layers = (
{
hints = (
{
horizontal = 1;
place = (-9,44);
type = Stem;
},
{
horizontal = 1;
place = (391,44);
type = Stem;
},
{
place = (33,101);
type = Stem;
},
{
place = (241,101);
type = Stem;
}
);
layerId = "8E176FE4-6495-4606-9FA3-C7BE98DB310E";
shapes = (
{
closed = 1;
nodes = (
(360,187,o),
(331,222,o),
(243,254,cs),
(159,285,o),
(127,300,o),
(127,335,cs),
(127,366,o),
(157,388,o),
(190,388,cs),
(216,388,o),
(232,382,o),
(237,379,c),
(235,372,o),
(234,360,o),
(234,353,c),
(236,327,o),
(255,308,o),
(284,308,cs),
(312,308,o),
(335,326,o),
(335,361,cs),
(335,396,o),
(290,435,o),
(196,435,cs),
(119,435,o),
(46,377,o),
(46,311,cs),
(46,257,o),
(71,216,o),
(159,183,cs),
(226,158,o),
(276,139,o),
(276,102,cs),
(276,63,o),
(240,39,o),
(199,39,cs),
(175,39,o),
(141,47,o),
(125,57,c),
(127,63,o),
(130,75,o),
(130,90,cs),
(130,100,o),
(123,140,o),
(78,140,cs),
(42,140,o),
(25,113,o),
(25,84,cs),
(25,36,o),
(93,-9,o),
(190,-9,cs),
(301,-9,o),
(360,66,o),
(360,124,cs)
);
}
);
width = 379;
}
);
unicode = 115;
}
{
glyphname = t;
layers = (
{
hints = (
{
horizontal = 1;
place = (-9,65);
type = Stem;
},
{
horizontal = 1;
place = (363,57);
type = Stem;
},
{
place = (77,101);
type = Stem;
}
);
layerId = "8E176FE4-6495-4606-9FA3-C7BE98DB310E";
shapes = (
{
closed = 1;
nodes = (
(267,72,l),
(247,62,o),
(229,55,o),
(214,55,cs),
(186,55,o),
(170,71,o),
(170,100,cs),
(170,117,o),
(170,364,o),
(170,367,c),
(187,367,o),
(269,367,o),
(272,367,c),
(272,369,o),
(272,416,o),
(272,420,c),
(270,420,o),
(187,420,o),
(170,420,c),
(170,437,o),
(170,568,o),
(170,568,c),
(86,557,ls),
(80,556,o),
(76,549,o),
(76,543,cs),
(76,533,o),
(76,452,o),
(76,449,cs),
(76,430,o),
(70,425,o),
(54,417,cs),
(30,406,o),
(24,404,o),
(24,396,cs),
(24,391,o),
(24,369,o),
(24,367,c),
(26,367,o),
(65,367,o),
(70,367,c),
(70,339,o),
(70,106,o),
(70,99,cs),
(70,38,o),
(95,-9,o),
(176,-9,cs),
(227,-9,o),
(274,14,o),
(287,27,c)
);
}
);
width = 293;
}
);
unicode = 116;
}
{
glyphname = u;
layers = (
{
hints = (
{
horizontal = 1;
place = (-9,65);
type = Stem;
},
{
horizontal = 1;
place = (429,-20);
target = down;
type = TopGhost;
},
{
place = (78,101);
type = Stem;
},
{
place = (357,101);
type = Stem;
}
);
layerId = "8E176FE4-6495-4606-9FA3-C7BE98DB310E";
shapes = (
{
closed = 1;
nodes = (
(496,5,l),
(496,5,o),
(496,30,o),
(496,33,cs),
(496,41,o),
(492,42,o),
(476,50,cs),
(453,62,o),
(451,63,o),
(451,89,cs),
(451,111,o),
(451,423,o),
(451,429,c),
(304,420,l),
(304,420,o),
(304,398,o),
(304,395,cs),
(304,387,o),
(309,385,o),
(326,378,cs),
(348,368,o),
(351,362,o),
(351,339,cs),
(351,336,o),
(351,118,o),
(351,105,c),
(331,76,o),
(292,54,o),
(254,54,cs),
(209,54,o),
(172,81,o),
(172,138,cs),
(172,158,o),
(172,423,o),
(172,429,c),
(25,420,l),
(25,420,o),
(25,398,o),
(25,395,cs),
(25,387,o),
(29,385,o),
(45,378,cs),
(68,368,o),
(70,362,o),
(70,336,cs),
(70,329,o),
(70,152,o),
(70,145,cs),
(70,58,o),
(124,-9,o),
(215,-9,cs),
(285,-9,o),
(329,21,o),
(360,53,c),
(360,47,o),
(360,5,o),
(360,-1,c)
);
}
);
width = 527;
}
);
unicode = 117;
}
{
glyphname = v;
layers = (
{
hints = (
{
horizontal = 1;
place = (-7,20);
type = Stem;
},
{
horizontal = 1;
place = (420,-20);
target = down;
type = TopGhost;
},
{
place = (4,200);
type = Stem;
}
);
layerId = "8E176FE4-6495-4606-9FA3-C7BE98DB310E";
shapes = (
{
closed = 1;
nodes = (
(459,397,o),
(459,420,o),
(459,420,c),
(291,420,l),
(291,420,o),
(291,397,o),
(291,395,cs),
(291,389,o),
(298,384,o),
(310,379,cs),
(331,369,o),
(338,362,o),
(338,350,cs),
(338,343,o),
(335,324,o),
(330,312,cs),
(251,114,l),
(169,317,ls),
(166,325,o),
(158,344,o),
(158,354,cs),
(158,363,o),
(160,371,o),
(177,378,cs),
(194,386,o),
(199,388,o),
(199,396,cs),
(199,398,o),
(199,420,o),
(199,420,c),
(-3,420,l),
(-3,420,o),
(-3,395,o),
(-3,393,cs),
(-3,385,o),
(1,385,o),
(17,377,cs),
(36,367,o),
(41,358,o),
(46,347,cs),
(201,-1,ls),
(203,-6,o),
(207,-7,o),
(213,-7,c),
(213,-7,o),
(246,-7,o),
(248,-7,cs),
(252,-7,o),
(255,-6,o),
(257,-1,cs),
(392,316,ls),
(406,348,o),
(413,365,o),
(442,379,cs),
(452,384,o),
(459,387,o),
(459,395,cs)
);
}
);
width = 449;
}
);
unicode = 118;
}
{
glyphname = w;
layers = (
{
hints = (
{
horizontal = 1;
place = (-6,20);
type = Stem;
},
{
horizontal = 1;
place = (420,-20);
target = down;
type = TopGhost;
},
{
place = (5,200);
type = Stem;
},
{
place = (524,166);
type = Stem;
}
);
layerId = "8E176FE4-6495-4606-9FA3-C7BE98DB310E";
shapes = (
{
closed = 1;
nodes = (
(683,397,o),
(683,420,o),
(683,420,c),
(514,420,l),
(514,420,o),
(514,398,o),
(514,396,cs),
(514,390,o),
(522,384,o),
(535,378,cs),
(556,368,o),
(563,361,o),
(563,350,cs),
(563,343,o),
(557,322,o),
(554,312,cs),
(491,117,l),
(384,420,l),
(338,420,l),
(234,117,l),
(164,320,ls),
(161,329,o),
(156,349,o),
(156,354,cs),
(156,362,o),
(160,371,o),
(176,378,cs),
(193,385,o),
(197,388,o),
(197,396,cs),
(197,398,o),
(197,420,o),
(197,420,c),
(-2,420,l),
(-2,420,o),
(-2,395,o),
(-2,393,cs),
(-2,385,o),
(2,385,o),
(17,377,cs),
(37,367,o),
(44,362,o),
(50,347,cs),
(186,0,ls),
(188,-5,o),
(194,-6,o),
(199,-6,c),
(200,-6,o),
(232,-6,o),
(234,-6,cs),
(238,-6,o),
(241,-5,o),
(243,0,cs),
(340,277,l),
(441,0,ls),
(443,-5,o),
(449,-6,o),
(454,-6,c),
(455,-6,o),
(487,-6,o),
(489,-6,cs),
(493,-6,o),
(496,-5,o),
(498,0,cs),
(616,319,ls),
(627,350,o),
(637,365,o),
(666,379,cs),
(677,384,o),
(683,387,o),
(683,395,cs)
);
}
);
width = 677;
}
);
unicode = 119;
}
{
glyphname = x;
layers = (
{
hints = (
{
horizontal = 1;
place = (0,20);
type = Stem;
},
{
horizontal = 1;
place = (420,-20);
target = down;
type = TopGhost;
},
{
place = (12,173);
type = Stem;
},
{
place = (290,190);
type = Stem;
}
);
layerId = "8E176FE4-6495-4606-9FA3-C7BE98DB310E";
shapes = (
{
closed = 1;
nodes = (
(473,0,l),
(473,0,o),
(473,20,o),
(473,22,cs),
(473,30,o),
(469,34,o),
(456,41,cs),
(435,54,o),
(428,59,o),
(414,76,cs),
(282,233,l),
(359,324,ls),
(384,353,o),
(390,362,o),
(428,378,cs),
(447,386,o),
(452,389,o),
(452,397,cs),
(452,399,o),
(452,420,o),
(452,420,c),
(283,420,l),
(283,420,o),
(283,397,o),
(283,394,cs),
(283,387,o),
(286,388,o),
(302,380,cs),
(312,374,o),
(317,370,o),
(317,364,cs),
(317,358,o),
(312,350,o),
(305,341,cs),
(250,271,l),
(190,347,ls),
(183,356,o),
(179,364,o),
(179,369,cs),
(179,376,o),
(185,379,o),
(189,382,cs),
(197,387,o),
(203,392,o),
(203,398,cs),
(203,400,o),
(203,420,o),
(203,420,c),
(11,420,l),
(11,420,o),
(11,401,o),
(11,399,cs),
(11,392,o),
(16,388,o),
(28,381,c),
(44,369,o),
(54,364,o),
(68,347,cs),
(189,203,l),
(100,98,ls),
(83,78,o),
(72,62,o),
(30,45,cs),
(9,37,o),
(5,33,o),
(5,25,cs),
(5,23,o),
(5,0,o),
(5,0,c),
(178,0,l),
(178,0,o),
(178,23,o),
(178,25,cs),
(178,32,o),
(176,32,o),
(159,41,cs),
(148,46,o),
(142,53,o),
(142,60,cs),
(142,65,o),
(146,74,o),
(152,81,cs),
(220,166,l),
(295,73,ls),
(302,64,o),
(306,56,o),
(306,51,cs),
(306,44,o),
(300,41,o),
(296,38,cs),
(288,33,o),
(278,28,o),
(278,22,cs),
(278,20,o),
(278,0,o),
(278,0,c)
);
}
);
width = 474;
}
);
unicode = 120;
}
{
glyphname = y;
layers = (
{
hints = (
{
horizontal = 1;
place = (-197,118);
type = Stem;
},
{
horizontal = 1;
place = (420,-20);
target = down;
type = TopGhost;
},
{
place = (6,112);
type = Stem;
},
{
place = (303,166);
type = Stem;
}
);
layerId = "8E176FE4-6495-4606-9FA3-C7BE98DB310E";
shapes = (
{
closed = 1;
nodes = (
(462,397,o),
(462,420,o),
(462,420,c),
(292,420,l),
(292,420,o),
(292,396,o),
(292,394,cs),
(292,388,o),
(299,382,o),
(311,377,c),
(332,366,o),
(340,361,o),
(340,349,cs),
(340,340,o),
(336,325,o),
(331,312,cs),
(250,110,l),
(167,319,ls),
(161,333,o),
(156,349,o),
(156,355,cs),
(156,363,o),
(160,369,o),
(176,376,cs),
(193,383,o),
(198,386,o),
(198,394,cs),
(198,396,o),
(198,420,o),
(198,420,c),
(-4,420,l),
(-4,420,o),
(-4,395,o),
(-4,393,cs),
(-4,386,o),
(1,385,o),
(16,377,cs),
(36,367,o),
(41,361,o),
(47,348,cs),
(200,-6,l),
(181,-58,o),
(146,-124,o),
(111,-128,c),
(111,-103,o),
(93,-79,o),
(62,-79,cs),
(32,-79,o),
(7,-99,o),
(7,-136,cs),
(7,-171,o),
(32,-197,o),
(85,-197,cs),
(129,-197,o),
(191,-161,o),
(248,-27,cs),
(393,315,ls),
(406,346,o),
(415,365,o),
(445,379,cs),
(455,384,o),
(462,387,o),
(462,395,cs)
);
}
);
width = 450;
}
);
unicode = 121;
}
{
glyphname = z;
layers = (
{
hints = (
{
horizontal = 1;
place = (0,57);
type = Stem;
},
{
horizontal = 1;
place = (363,57);
type = Stem;
}
);
layerId = "8E176FE4-6495-4606-9FA3-C7BE98DB310E";
shapes = (
{
closed = 1;
nodes = (
(390,136,l),
(389,136,o),
(361,136,o),
(360,136,c),
(351,136,o),
(346,133,o),
(341,119,cs),
(326,75,o),
(311,53,o),
(274,53,cs),
(269,53,o),
(141,53,o),
(141,53,c),
(371,356,ls),
(379,367,o),
(381,376,o),
(381,385,cs),
(381,388,o),
(381,420,o),
(381,420,c),
(381,420,o),
(117,420,o),
(106,420,cs),
(88,420,o),
(49,423,o),
(38,424,c),
(38,424,o),
(38,302,o),
(38,297,c),
(40,297,o),
(63,297,o),
(65,297,cs),
(74,297,o),
(82,302,o),
(84,308,cs),
(100,358,o),
(113,368,o),
(160,368,cs),
(163,368,o),
(267,368,o),
(267,368,c),
(26,47,ls),
(19,37,o),
(14,30,o),
(14,18,cs),
(14,13,o),
(14,0,o),
(14,0,c),
(14,0,o),
(303,0,o),
(313,0,cs),
(338,0,o),
(375,-4,o),
(390,-5,c)
);
}
);
width = 408;
}
);
unicode = 122;
}
{
glyphname = braceleft;
layers = (
{
hints = (
{
horizontal = 1;
place = (733,-20);
target = down;
type = TopGhost;
},
{
place = (120,91);
type = Stem;
}
);
layerId = "8E176FE4-6495-4606-9FA3-C7BE98DB310E";
shapes = (
{
closed = 1;
nodes = (
(341,-168,l),
(237,-141,o),
(206,-96,o),
(206,-14,cs),
(206,33,o),
(211,67,o),
(211,101,cs),
(211,194,o),
(145,244,o),
(82,269,c),
(145,294,o),
(211,339,o),
(211,435,cs),
(211,469,o),
(206,503,o),
(206,550,cs),
(206,632,o),
(237,677,o),
(341,704,c),
(341,733,l),
(204,733,o),
(113,649,o),
(113,535,cs),
(113,493,o),
(121,448,o),
(121,410,cs),
(121,340,o),
(93,296,o),
(22,282,c),
(22,255,l),
(93,241,o),
(121,196,o),
(121,126,cs),
(121,88,o),
(113,43,o),
(113,1,cs),
(113,-113,o),
(203,-197,o),
(341,-197,c)
);
}
);
width = 366;
}
);
unicode = 123;
}
{
glyphname = bar;
layers = (
{
hints = (
{
horizontal = 1;
place = (730,-20);
target = down;
type = TopGhost;
},
{
place = (7,69);
type = Stem;
}
);
layerId = "8E176FE4-6495-4606-9FA3-C7BE98DB310E";
shapes = (
{
closed = 1;
nodes = (
(64,730,l),
(0,730,l),
(0,-190,l),
(64,-190,l)
);
}
);
width = 64;
}
);
unicode = 124;
}
{
glyphname = braceright;
layers = (
{
hints = (
{
horizontal = 1;
place = (733,-20);
target = down;
type = TopGhost;
},
{
place = (169,91);
type = Stem;
}
);
layerId = "8E176FE4-6495-4606-9FA3-C7BE98DB310E";
shapes = (
{
closed = 1;
nodes = (
(344,282,l),
(273,296,o),
(245,340,o),
(245,410,cs),
(245,448,o),
(253,493,o),
(253,535,cs),
(253,649,o),
(162,733,o),
(25,733,c),
(25,704,l),
(129,677,o),
(160,632,o),
(160,550,cs),
(160,503,o),
(155,469,o),
(155,435,cs),
(155,339,o),
(221,294,o),
(284,269,c),
(221,244,o),
(155,194,o),
(155,101,cs),
(155,67,o),
(160,33,o),
(160,-14,cs),
(160,-96,o),
(129,-141,o),
(25,-168,c),
(25,-197,l),
(163,-197,o),
(253,-113,o),
(253,1,cs),
(253,43,o),
(245,88,o),
(245,126,cs),
(245,196,o),
(273,241,o),
(344,255,c)
);
}
);
width = 366;
}
);
unicode = 125;
}
{
glyphname = asciitilde;
layers = (
{
hints = (
{
horizontal = 1;
place = (200,92);
type = Stem;
},
{
horizontal = 1;
place = (302,92);
type = Stem;
}
);
layerId = "8E176FE4-6495-4606-9FA3-C7BE98DB310E";
shapes = (
{
closed = 1;
nodes = (
(596,404,l),
(588,352,o),
(565,290,o),
(508,290,cs),
(476,290,o),
(443,319,o),
(398,349,cs),
(353,380,o),
(329,394,o),
(279,394,cs),
(182,394,o),
(112,302,o),
(107,192,c),
(160,192,l),
(168,244,o),
(192,306,o),
(248,306,cs),
(285,306,o),
(316,281,o),
(360,251,cs),
(412,215,o),
(438,200,o),
(477,200,cs),
(576,200,o),
(644,294,o),
(649,404,c)
);
}
);
width = 742;
}
);
unicode = 126;
}
{
glyphname = exclamdown;
layers = (
{
hints = (
{
horizontal = 1;
place = (409,138);
type = Stem;
},
{
place = (146,91);
type = Stem;
}
);
layerId = "8E176FE4-6495-4606-9FA3-C7BE98DB310E";
shapes = (
{
closed = 1;
nodes = (
(229,516,o),
(199,547,o),
(162,547,cs),
(123,547,o),
(93,516,o),
(93,478,cs),
(93,441,o),
(123,410,o),
(162,410,cs),
(199,410,o),
(229,441,o),
(229,478,cs)
);
},
{
closed = 1;
nodes = (
(226,-55,o),
(211,-9,o),
(199,90,cs),
(188,179,o),
(185,259,o),
(182,323,c),
(182,330,o),
(176,335,o),
(161,335,cs),
(145,335,o),
(139,330,o),
(139,323,c),
(136,260,o),
(134,179,o),
(123,90,cs),
(111,-9,o),
(95,-54,o),
(95,-116,cs),
(95,-158,o),
(115,-200,o),
(162,-200,cs),
(206,-200,o),
(226,-158,o),
(226,-116,cs)
);
}
);
width = 321;
}
);
unicode = 161;
}
{
glyphname = sterling;
layers = (
{
hints = (
{
horizontal = 1;
place = (-9,50);
type = Stem;
},
{
horizontal = 1;
place = (146,57);
type = Stem;
},
{
horizontal = 1;
place = (323,57);
type = Stem;
},
{
horizontal = 1;
place = (637,57);
type = Stem;
},
{
place = (27,53);
type = Stem;
},
{
place = (118,112);
type = Stem;
},
{
place = (391,119);
type = Stem;
}
);
layerId = "8E176FE4-6495-4606-9FA3-C7BE98DB310E";
shapes = (
{
closed = 1;
nodes = (
(512,131,l),
(483,106,o),
(447,92,o),
(415,92,cs),
(367,92,o),
(328,116,o),
(278,145,c),
(287,175,o),
(292,208,o),
(292,238,cs),
(292,265,o),
(284,296,o),
(274,324,c),
(432,324,l),
(432,380,l),
(254,380,l),
(237,423,o),
(220,468,o),
(220,507,cs),
(220,589,o),
(270,639,o),
(343,639,cs),
(372,639,o),
(392,633,o),
(414,615,c),
(395,598,o),
(385,582,o),
(385,558,cs),
(385,521,o),
(413,503,o),
(442,503,cs),
(473,503,o),
(503,524,o),
(503,573,cs),
(503,639,o),
(437,694,o),
(335,694,cs),
(200,694,o),
(111,590,o),
(111,487,cs),
(111,449,o),
(121,410,o),
(133,380,c),
(42,380,l),
(42,324,l),
(158,324,l),
(161,318,o),
(165,311,o),
(168,305,cs),
(182,278,o),
(204,233,o),
(210,182,c),
(185,193,o),
(159,202,o),
(131,202,cs),
(76,202,o),
(20,164,o),
(20,91,cs),
(20,28,o),
(74,-9,o),
(124,-9,cs),
(181,-9,o),
(223,24,o),
(251,72,c),
(293,29,o),
(335,-9,o),
(395,-9,cs),
(464,-9,o),
(509,37,o),
(543,88,c)
);
},
{
closed = 1;
nodes = (
(197,70,o),
(163,42,o),
(126,42,cs),
(90,42,o),
(72,66,o),
(72,93,cs),
(72,121,o),
(95,146,o),
(129,146,cs),
(160,146,o),
(186,132,o),
(208,114,c)
);
}
);
width = 529;
}
);
unicode = 163;
}
{
glyphname = degree;
layers = (
{
hints = (
{
horizontal = 1;
place = (472,44);
type = Stem;
},
{
horizontal = 1;
place = (686,44);
type = Stem;
},
{
place = (30,53);
type = Stem;
},
{
place = (237,53);
type = Stem;
}
);
layerId = "8E176FE4-6495-4606-9FA3-C7BE98DB310E";
shapes = (
{
closed = 1;
nodes = (
(302,678,o),
(239,740,o),
(164,740,cs),
(89,740,o),
(26,678,o),
(26,603,cs),
(26,528,o),
(89,466,o),
(164,466,cs),
(239,466,o),
(302,528,o),
(302,603,cs)
);
},
{
closed = 1;
nodes = (
(245,556,o),
(213,514,o),
(164,514,cs),
(114,514,o),
(82,556,o),
(82,603,cs),
(82,650,o),
(114,692,o),
(164,692,cs),
(213,692,o),
(245,650,o),
(245,603,cs)
);
}
);
width = 328;
}
);
unicode = 176;
}
{
glyphname = plusminus;
layers = (
{
hints = (
{
horizontal = 1;
place = (257,73);
type = Stem;
},
{
place = (341,69);
type = Stem;
}
);
layerId = "8E176FE4-6495-4606-9FA3-C7BE98DB310E";
shapes = (
{
closed = 1;
nodes = (
(632,421,l),
(408,421,l),
(408,633,l),
(334,633,l),
(334,421,l),
(110,421,l),
(110,349,l),
(334,349,l),
(334,137,l),
(408,137,l),
(408,349,l),
(632,349,l)
);
},
{
closed = 1;
nodes = (
(632,72,l),
(110,72,l),
(110,0,l),
(632,0,l)
);
}
);
width = 742;
}
);
unicode = 177;
}
{
glyphname = periodcentered;
layers = (
{
hints = (
{
horizontal = 1;
place = (274,138);
type = Stem;
},
{
place = (54,137);
type = Stem;
}
);
layerId = "8E176FE4-6495-4606-9FA3-C7BE98DB310E";
shapes = (
{
closed = 1;
nodes = (
(184,381,o),
(154,413,o),
(115,413,cs),
(76,413,o),
(47,381,o),
(47,344,cs),
(47,305,o),
(76,274,o),
(115,274,cs),
(154,274,o),
(184,305,o),
(184,344,cs)
);
}
);
width = 230;
}
);
unicode = 183;
}
{
glyphname = questiondown;
layers = (
{
hints = (
{
horizontal = 1;
place = (-199,44);
type = Stem;
},
{
horizontal = 1;
place = (409,138);
type = Stem;
},
{
place = (34,112);
type = Stem;
},
{
place = (164,91);
type = Stem;
},
{
place = (266,119);
type = Stem;
}
);
layerId = "8E176FE4-6495-4606-9FA3-C7BE98DB310E";
shapes = (
{
closed = 1;
nodes = (
(292,516,o),
(262,547,o),
(224,547,cs),
(186,547,o),
(155,516,o),
(155,478,cs),
(155,441,o),
(186,410,o),
(224,410,cs),
(262,410,o),
(292,441,o),
(292,478,cs)
);
},
{
closed = 1;
nodes = (
(378,-42,o),
(355,-13,o),
(316,-13,cs),
(285,-13,o),
(259,-35,o),
(259,-76,cs),
(259,-88,o),
(263,-104,o),
(282,-120,c),
(270,-140,o),
(243,-151,o),
(220,-151,cs),
(177,-151,o),
(137,-129,o),
(137,-46,cs),
(137,8,o),
(157,41,o),
(197,116,cs),
(239,197,o),
(251,269,o),
(248,329,c),
(248,333,o),
(232,338,o),
(223,338,cs),
(214,338,o),
(199,333,o),
(199,329,c),
(196,247,o),
(182,198,o),
(109,112,cs),
(60,54,o),
(27,13,o),
(27,-48,cs),
(27,-136,o),
(96,-199,o),
(202,-199,cs),
(321,-199,o),
(378,-133,o),
(378,-76,cs)
);
}
);
width = 411;
}
);
unicode = 191;
}
{
glyphname = multiply;
layers = (
{
layerId = "8E176FE4-6495-4606-9FA3-C7BE98DB310E";
shapes = (
{
closed = 1;
nodes = (
(422,293,l),
(615,484,l),
(562,536,l),
(371,344,l),
(181,537,l),
(128,484,l),
(320,293,l),
(128,103,l),
(180,50,l),
(371,242,l),
(562,50,l),
(615,103,l)
);
}
);
width = 742;
}
);
unicode = 215;
}
{
glyphname = divide;
layers = (
{
hints = (
{
horizontal = 1;
place = (37,138);
type = Stem;
},
{
horizontal = 1;
place = (257,73);
type = Stem;
},
{
horizontal = 1;
place = (411,138);
type = Stem;
},
{
place = (309,137);
type = Stem;
}
);
layerId = "8E176FE4-6495-4606-9FA3-C7BE98DB310E";
shapes = (
{
closed = 1;
nodes = (
(440,519,o),
(410,549,o),
(371,549,cs),
(332,549,o),
(302,519,o),
(302,480,cs),
(302,441,o),
(332,411,o),
(371,411,cs),
(410,411,o),
(440,441,o),
(440,480,cs)
);
},
{
closed = 1;
nodes = (
(637,329,l),
(105,329,l),
(105,257,l),
(637,257,l)
);
},
{
closed = 1;
nodes = (
(440,145,o),
(410,175,o),
(371,175,cs),
(332,175,o),
(302,145,o),
(302,106,cs),
(302,67,o),
(332,37,o),
(371,37,cs),
(410,37,o),
(440,67,o),
(440,106,cs)
);
}
);
width = 742;
}
);
unicode = 247;
}
{
glyphname = tilde;
layers = (
{
hints = (
{
horizontal = 1;
place = (511,65);
type = Stem;
},
{
place = (45,32);
type = Stem;
},
{
place = (323,32);
type = Stem;
}
);
layerId = "8E176FE4-6495-4606-9FA3-C7BE98DB310E";
shapes = (
{
closed = 1;
nodes = (
(317,628,l),
(315,600,o),
(298,575,o),
(270,575,cs),
(251,575,o),
(232,588,o),
(205,603,cs),
(177,618,o),
(164,624,o),
(134,624,cs),
(79,624,o),
(38,572,o),
(38,507,c),
(69,507,l),
(71,535,o),
(88,560,o),
(116,560,cs),
(137,560,o),
(155,549,o),
(181,534,cs),
(214,515,o),
(228,511,o),
(252,511,cs),
(307,511,o),
(348,563,o),
(348,628,c)
);
}
);
width = 386;
}
);
unicode = 732;
}
{
glyphname = emdash;
layers = (
{
hints = (
{
horizontal = 1;
place = (186,73);
type = Stem;
}
);
layerId = "8E176FE4-6495-4606-9FA3-C7BE98DB310E";
shapes = (
{
closed = 1;
nodes = (
(1046,260,l),
(46,260,l),
(46,186,l),
(1046,186,l)
);
}
);
width = 1092;
}
);
unicode = 8212;
}
{
glyphname = quoteleft;
layers = (
{
hints = (
{
horizontal = 1;
place = (741,-20);
target = down;
type = TopGhost;
},
{
place = (53,137);
type = Stem;
}
);
layerId = "8E176FE4-6495-4606-9FA3-C7BE98DB310E";
shapes = (
{
closed = 1;
nodes = (
(175,741,l),
(84,690,o),
(46,610,o),
(46,546,cs),
(46,495,o),
(68,459,o),
(117,459,cs),
(152,459,o),
(183,486,o),
(183,528,cs),
(183,559,o),
(164,588,o),
(111,594,c),
(124,647,o),
(159,678,o),
(200,712,c)
);
}
);
width = 241;
}
);
unicode = 8216;
}
{
glyphname = quotesinglbase;
layers = (
{
hints = (
{
horizontal = 1;
place = (740,-20);
target = down;
type = TopGhost;
},
{
place = (54,137);
type = Stem;
}
);
layerId = "8E176FE4-6495-4606-9FA3-C7BE98DB310E";
shapes = (
{
closed = 1;
nodes = (
(191,98,o),
(170,134,o),
(120,134,cs),
(85,134,o),
(54,107,o),
(54,66,cs),
(54,34,o),
(72,5,o),
(125,-1,c),
(113,-54,o),
(77,-85,o),
(37,-119,c),
(61,-147,l),
(152,-97,o),
(191,-19,o),
(191,46,cs)
);
}
);
width = 241;
}
);
unicode = 8218;
}
{
glyphname = quotedblleft;
layers = (
{
hints = (
{
horizontal = 1;
place = (741,-20);
target = down;
type = TopGhost;
},
{
place = (53,137);
type = Stem;
},
{
place = (238,137);
type = Stem;
}
);
layerId = "8E176FE4-6495-4606-9FA3-C7BE98DB310E";
shapes = (
{
closed = 1;
nodes = (
(360,741,l),
(269,690,o),
(231,610,o),
(231,546,cs),
(231,495,o),
(253,459,o),
(302,459,cs),
(337,459,o),
(368,486,o),
(368,528,cs),
(368,559,o),
(349,588,o),
(296,594,c),
(309,647,o),
(344,678,o),
(385,712,c)
);
},
{
closed = 1;
nodes = (
(175,741,l),
(84,690,o),
(46,610,o),
(46,546,cs),
(46,495,o),
(68,459,o),
(117,459,cs),
(152,459,o),
(183,486,o),
(183,528,cs),
(183,559,o),
(164,588,o),
(111,594,c),
(124,647,o),
(159,678,o),
(200,712,c)
);
}
);
width = 426;
}
);
unicode = 8220;
}
{
glyphname = quotedblright;
layers = (
{
hints = (
{
horizontal = 1;
place = (740,-20);
target = down;
type = TopGhost;
},
{
place = (61,137);
type = Stem;
},
{
place = (246,137);
type = Stem;
}
);
layerId = "8E176FE4-6495-4606-9FA3-C7BE98DB310E";
shapes = (
{
closed = 1;
nodes = (
(376,704,o),
(354,740,o),
(305,740,cs),
(270,740,o),
(239,713,o),
(239,672,cs),
(239,640,o),
(257,611,o),
(310,605,c),
(298,552,o),
(262,521,o),
(222,487,c),
(246,459,l),
(337,509,o),
(376,589,o),
(376,654,cs)
);
},
{
closed = 1;
nodes = (
(191,704,o),
(169,740,o),
(120,740,cs),
(85,740,o),
(54,713,o),
(54,672,cs),
(54,640,o),
(72,611,o),
(125,605,c),
(113,552,o),
(77,521,o),
(37,487,c),
(61,459,l),
(152,509,o),
(191,589,o),
(191,654,cs)
);
}
);
width = 426;
}
);
unicode = 8221;
}
{
glyphname = quotedblbase;
layers = (
{
hints = (
{
horizontal = 1;
place = (740,-20);
target = down;
type = TopGhost;
},
{
place = (61,137);
type = Stem;
},
{
place = (246,137);
type = Stem;
}
);
layerId = "8E176FE4-6495-4606-9FA3-C7BE98DB310E";
shapes = (
{
closed = 1;
nodes = (
(376,98,o),
(354,134,o),
(305,134,cs),
(270,134,o),
(239,107,o),
(239,66,cs),
(239,34,o),
(257,5,o),
(310,-1,c),
(298,-54,o),
(262,-85,o),
(222,-119,c),
(246,-147,l),
(337,-97,o),
(376,-17,o),
(376,48,cs)
);
},
{
closed = 1;
nodes = (
(191,98,o),
(169,134,o),
(120,134,cs),
(85,134,o),
(54,107,o),
(54,66,cs),
(54,34,o),
(72,5,o),
(125,-1,c),
(113,-54,o),
(77,-85,o),
(37,-119,c),
(61,-147,l),
(152,-97,o),
(191,-17,o),
(191,48,cs)
);
}
);
width = 426;
}
);
unicode = 8222;
}
{
glyphname = bullet;
layers = (
{
layerId = "8E176FE4-6495-4606-9FA3-C7BE98DB310E";
shapes = (
{
closed = 1;
nodes = (
(398,456,o),
(311,544,o),
(205,544,cs),
(98,544,o),
(11,456,o),
(11,350,cs),
(11,244,o),
(98,156,o),
(205,156,cs),
(311,156,o),
(398,244,o),
(398,350,cs)
);
}
);
width = 409;
}
);
unicode = 8226;
}
{
glyphname = ellipsis;
layers = (
{
hints = (
{
horizontal = 1;
place = (-6,138);
type = Stem;
},
{
place = (97,137);
type = Stem;
},
{
place = (414,137);
type = Stem;
},
{
place = (731,137);
type = Stem;
}
);
layerId = "8E176FE4-6495-4606-9FA3-C7BE98DB310E";
shapes = (
{
closed = 1;
nodes = (
(751,101,o),
(721,133,o),
(682,133,cs),
(643,133,o),
(614,101,o),
(614,64,cs),
(614,25,o),
(643,-6,o),
(682,-6,cs),
(721,-6,o),
(751,25,o),
(751,64,cs)
);
},
{
closed = 1;
nodes = (
(478,101,o),
(448,133,o),
(409,133,cs),
(370,133,o),
(341,101,o),
(341,64,cs),
(341,25,o),
(370,-6,o),
(409,-6,cs),
(448,-6,o),
(478,25,o),
(478,64,cs)
);
},
{
closed = 1;
nodes = (
(205,101,o),
(175,133,o),
(136,133,cs),
(97,133,o),
(68,101,o),
(68,64,cs),
(68,25,o),
(97,-6,o),
(136,-6,cs),
(175,-6,o),
(205,25,o),
(205,64,cs)
);
}
);
width = 818;
}
);
unicode = 8230;
}
{
glyphname = Euro;
layers = (
{
hints = (
{
horizontal = 1;
place = (-9,65);
type = Stem;
},
{
horizontal = 1;
place = (257,44);
type = Stem;
},
{
horizontal = 1;
place = (382,44);
type = Stem;
},
{
horizontal = 1;
place = (637,57);
type = Stem;
},
{
place = (94,101);
type = Stem;
},
{
place = (413,119);
type = Stem;
}
);
layerId = "8E176FE4-6495-4606-9FA3-C7BE98DB310E";
shapes = (
{
closed = 1;
nodes = (
(516,157,l),
(468,82,o),
(418,57,o),
(352,57,cs),
(245,57,o),
(203,145,o),
(193,257,c),
(383,257,l),
(383,305,l),
(190,305,l),
(190,318,o),
(190,329,o),
(190,343,cs),
(190,356,o),
(190,365,o),
(191,378,c),
(414,378,l),
(414,426,l),
(195,426,l),
(210,557,o),
(268,640,o),
(353,640,cs),
(397,640,o),
(408,631,o),
(414,628,c),
(412,617,o),
(407,595,o),
(407,584,cs),
(407,551,o),
(427,526,o),
(464,526,cs),
(498,526,o),
(525,552,o),
(525,590,cs),
(525,638,o),
(479,694,o),
(369,694,cs),
(215,694,o),
(123,588,o),
(95,426,c),
(21,426,l),
(21,378,l),
(89,378,l),
(88,360,o),
(87,344,o),
(87,324,cs),
(87,317,o),
(87,312,o),
(87,305,c),
(21,305,l),
(21,257,l),
(90,257,l),
(107,98,o),
(191,-9,o),
(341,-9,cs),
(415,-9,o),
(511,39,o),
(550,122,c)
);
}
);
width = 557;
}
);
unicode = 8364;
}
{
glyphname = minus;
layers = (
{
hints = (
{
horizontal = 1;
place = (257,73);
type = Stem;
}
);
layerId = "8E176FE4-6495-4606-9FA3-C7BE98DB310E";
shapes = (
{
closed = 1;
nodes = (
(632,329,l),
(110,329,l),
(110,257,l),
(632,257,l)
);
}
);
width = 742;
}
);
unicode = 8722;
}
